<?xml version="1.0" encoding="UTF-8"?>
<svg version="1.1" viewBox="0 0 2048 1262" width="636" height="392" xmlns="http://www.w3.org/2000/svg">
<path transform="translate(1673,227)" d="m0 0h11l10 4 10 9 6 9 6 13 5 19 1 5v28l-5 21-6 15 2 16v9h54l6 3 19 3 10 5 9 8 8 16 1 4 1 14 9 14 13 20 11 19 10 17 6 10 2 5 4-2 9-11 15-15 7-8 9-10 30-30 5-2 5-12 6-7 6-2 8 1 6 4 5-1 9-4 17-4 21-2h9l5 1v15l-8 7-12 6-12 3h-19l-10-5-3 10-4 5-6 4v7l-14 28-13 21-28 35-27 27-8 5-8 1-15-5-5-3-4-8-8-10-12-18-13-20-12-19-9-14-12-19-6-8-1 8v31l1 41v22l-2 1 1 6 1 2 2 31 10 10 10 13 9 15 8 19 7 23 6 29 2 15v13l5 13v9l-4 11-3 6 2 5 1 2v83l-3 50-5 42v73l6 9 14 17 11 13 9 11 7 7 9 11 7 8h5l10-5h11l8 3 6 5 7 10 4 11 1 15v40l-1 20-5 32-5 17-5 10-1 1h-36l-6-14-2-13-5-67-1-16-7-10-14-8-16-10-15-10-9-5-4 16-5 18-6 20-1 7 3 10 8 9 13 17 11 16 7 12 1 3v11l-6 9-7 5h-33l-15-9-10-8-12-11-9-13-3-8-1-8v-13l2-9 4-6 7-7h2v-18l-2-86-9-9-8-7-18-18-7-8-9-10-3-4-7-3-5-5-6-8-5-13-6-29-4-24-4-26-6-62v-44l4-5-1-6-4-9v-11l2-6h-2l-2-3-1-30v-25l1-25 3-20 6-25 6-13-1-6-5-10-3-23-4-4-12-60-6-18-6-11-10-15-1-4-5 1-9 5-5 1h-14l-9 16-7 6-7 2h-7l-7-3-5-4-7-11-5-13-2-1-1 92-1 1h-39l-1-104-3 2-14 46-11 40-5 15-1 1h-35l-2-2-12-42-5-17-11-36-2-4-2-1 1 3-1 98-4 1h-36l-1-3v-140l1-1h57l-8-10-2-4v-7l3-6 8-7 20-7 22-5 20-2h45l9-6 3-1h12l9 3 5 5 5 8 3 9 11 7 12 11 3 3 7-1 3-1 17-1 10-8 15-7 15-6 7-2-1-11-1-10-4-6-6-10-5-10-6-23-2-22v-12l3-16 5-12 8-10 7-6 9-4zm-256 189 3 15 8 28 8 27 5 15 3 1 3-7 7-27 9-30-1-4-26-11-17-7zm603 6-11 3v7l1 2h8l9-3 10-6-1-2h-6l-7-1zm-253 319-29 5-13 3 1 8 2 7v12l-3 12-2 6 7 14 2 13 3 31 2 42 1 56 7 11 8 5 15 7h1v-17l-1-21v-41l2-54 3-51 1-14 3-3-1-5-1-1-1-25z" fill="#13131C"/>
<path transform="translate(481,221)" d="m0 0h3l-1 7 8 1 10 4 3 1 15 1-1-2-6-1h-7l-2-4-18-6v-1h13l25 6 21 8 25 13 17 12 14 12 8 7 10 10 11 14 11 15 1 6 3 1 7 11 8 16 9 25 6 18 3 17 1 2 7 1 1 1 1 37v105l-1 1h-25l-1 6h240l168-1h189l274 1 4 5 1 5-4 7-2 1h-869l-3-4-6 1-5 3-5 6-5 15 3-3 3-5h2l-1 4-5 7-6 5-6 10-4 6-2-2-14 9-5 10v3l9-9h2l-2 4-7 7-9 6-8 6-21 12-5 5-10 6-18 8-18 6-26 5-17 1h-25l-16-1-26-6-24-9-17-9-10-8-7-6-11-7-11-9-2-1-1-7-5-9-10-7-6-3-6-7-4-6-5-6v-2h-2v-3l2-1-3-9-3-6-5-6-6-2-8-19-6-18-2-9 7 6 3 8 5 19 10 14-1-13-2-13-8-9v-2l-4-2-3-3-2-5-5-2-4-15-2-19v-33l-1-7v-11h1l2 10 6-26-1-10h-2l-1 5-4 16h-1l1-12 5-21 2-13 5-8 8-18v-13l6-12 8-12 11-15 6-12 6-8h2l-1 6 5-3 6-5 5-8-8 2 4-5 13-10 11-11 11-6 11-5 5-3h2l2-4 17-8 15-6 14-1v2l8 1 6 3 4-1-1-6 6 2 5-1 8-3h7l8 2v-3h2l1 4 8 1zm-19 4 1 11 5 1v-9l-5-3zm-9 2 1 5-6-4h-2l1 5 4 4 4 3 5-1 1-7-2-5zm-44 1-10 5-20 8-10 6-5 5-6 5-3 3-3 9-1-2h-3v7h-4l2-7-14 8-2 4 7-1 6-2-3 3-10 5-9 7-1 1v9l11-7 9-7 5-2-2 4-19 13-5 5 1 10 4-2 12-10 10-8 2-4v-7l2 1 3 8 1 9 2 6-5-2h-3l-4 6-5 11 2 9 4 3 4-4 3-1v2l6 5 5 9 8 15-1 8h-2l-1-1 3-3 1-3-4-6-3-4-3 1-5 9 7 5 5 5 1 5-1 12 5-1 4-14 1-9 6-22 4-15 3-12v-5l5-7 2-6v-5l-4-1-11 9-2 3-3-7-4-4-6 1-6 3 12-7 10-7-1-7-7 3-12 7-8 5 5-7 10-5v-5l-3-1-3 1 1-4v-1l2 1 10-4 2-1v-5l-5 1-6 2 5-5 10-3 8-1 20-5 4-4v-2l-7 1-22 6-5 1 2-4 3-2h8l16-3 7-3 1-4-9-1-1 5-7 2-15 1 7-3 10-7h9l11 2 3-3-9-4h-7zm61 0-1 1 1 8 6 4 9-1h11l5-1v-2l-12-5h-5l-3 3v-5h-5l-1 5-2-7zm-31 4v2l8 6 2-1-1-4-3-1-1-2zm-7 2v4l8 3h2v-3l-7-4zm87 1m-16 2-1 2 3-1zm21 0-15 1v2l2 1 10 1 10-1v-3zm10 1 3 4 7 2 4-1-5-4zm-108 1-6 5 2 1 6-4v-2zm2 3m76 0-9 3-1 3 8 2 1 3-6 3v3l3 2 2 4 5-2 1-3h5l1-6-4-8-4-4zm19 2-1 3-2 1v-2l-6-1 3 11 10 4 13 5 4 2 2-3 4 5 10 5 17 1-4-4-12-5-11-4-6-2-11-2-7-3v-4h-3l1-3h16l-2-3-7-1zm-105 1m124 1v3l7 3 4-1-2-4zm-123 1-3 2 1 4 15-4 2-2zm119 5 1 2 2-1zm-127 0-16 5-12 3-1 5 3 1 15-6 10-3 2-2zm134 1 1 5 16 7 3 1-2-4-8-7-6-2zm-122 1-7 3v3l4-1 5-1-4 2-5 3v3l3 3 2 3 3 1 1 2 6-1 3-3 3-10v-4l-3 1-3 4v2h-2v5l-3 1v-3l2-1v-5l3-2 1-4zm-70 1-8 5 2 1 9-3 1-3zm164 3v5l7 4 12 5 4 2h5v-2h2v2l4 1 2-2-2-2-7-2-12-5-13-6zm-108 1-22 8-4 1v5l5 1 15-7 8-4 1-4zm80 0 2 6 4-2-1 3-2 1 1 4 4-1v-2l4-1 2 4 4 2 4-6v-4h-3l-1 4-7-2-7-6zm-48 1-5 7-1 7 5-1 3-10v-3zm-99 2m117 0-2 4-5 2 1-5-3 1-4 5-2-4-3 5 2 4h5l2-3 1 3h4l2-5v5h5v-11zm26 0v6l2 6 5-1-3-9h-2v-2zm-17 1-2 2-1 8 4 1 2-1 1-5-3-5zm11 0v11h5l1-6-2-1-1-4zm-2 0-3 2-2 9 5-1 1-10zm-66 2-17 8-8 4 1 4 6-1 18-9 1-6zm104 1-4 6-1 3 5-1v-4l7 4h9l-5-5-6-3zm50 0m-151 3-2 6h6l-1-5zm84 1-2 1v3h5l-1-4zm-122 1-4 4v5l6-2 4-4-1-3zm-48 8-3 4 4-2 1-2zm73-1-9 5v4l2 2 4-1 4-5v-5zm-16 9-9 7v2l5 5 12-8-2-4-2-2zm214 5 1 5 7 6h3l-1-5-7-6zm-285 5-9 7-11 11-2 4v10l5-5 8-9 8-7 2-2v-9zm33 3-10 8-10 9-6 5 3 9 3 3 10-11 3-5 2-5 7-6 2-1-1-5zm257 3 1 5 2 3h2v-5zm-291 8-10 10-7 8-5 6v13l2 1 7-8 10-11 6-7v-11zm297 6 6 12 8 10 9 11h2v-9l-2-4-10-8-9-9-2-3zm29 7-1 5h3v-5zm-354 3-4 5-7 14-1 5 2 2 9-13 3-4v-8zm31 0-12 13-9 11-2 4 4 11 4 1 9-12 8-11 5-5-1-5-3-7zm20 3-7 6 1 4 5 6 5-1 3-5-1-4-4-6zm276 0 2 22 2 5 8 11h4l6-10-1-5-10-12-8-10zm29 1-1 5 4 7 4 2 1-1v-6l-5-5h-2zm-290 4-7 10-4 5 1 3 12 9h3l6-11v-5l-9-10zm-27 6-11 14-11 16 2 4 7 9h4l9-16 8-11 2-6-7-10zm-38 2-4 4-10 17-1 8 2 7 5-5 6-11 5-8-2-12zm51 12-11 15-10 17 2 4 14 10 3-3 13-26 5-8-11-6zm-47 5-7 10-7 12-1 8 5 10 3-1 13-25-1-7-4-7zm345 0-7 12 1 5 12 22 3 6 5-5 4-8-1-7-6-12-8-13zm-19 3 1 18 4-2 3-4-2-6-5-6zm-263 2 1 4-8 14-9 17 1 5 16 9 3-3 10-26 1-6-5-1 1-5-8-8zm-87 12-4 6-7 20 1 7 2 6 2-2 6-16 4-10-1-8-1-3zm33 0-4 5-10 19-1 8 10 12 3-1 8-18 5-10-1-6-9-9zm325 1-6 8-2 7 2 9 8 18 2 5 4-1 7-9 3-3 1-6-8-14-6-11-2-3zm-353 16-4 8-7 20v7l5 9h3l7-18 4-12-3-9-3-5zm42 0-8 16-6 15 6 7 11 8 2-1 12-32v-3l-9-6-5-4zm54 0-5 10-2 7v5l4 1 4-6 3-11v-6zm288 0-7 10-2 5 1 6h11l2-1-1-13-3-7zm-39 12-1 2-2 18-3 14 4-1 9-7 3-3-1-6-6-15zm-282 2-13 31v5l13 8 5 3h3l5-15 4-14 2-5-1-4-17-9zm-53 5-4 10-7 21 1 5 9 11 3 1 6-18 5-16-11-14zm251 0-3 4-3 11 5 2 4-2 1-2v-7l-2-5zm-174 7-3 7-8 25v6l9 4 11 5h3l-1-7-3-5-2-9-1-24zm277 4-5 4 2 9 2 5h2v-18zm-339 7-9 31v6l14 11 3 3h2l3-12 6-21v-5l-13-10-3-3zm234 0-5 2-5 9-6 5 1 19 2 11 7-1 3-9 7-30v-6zm-273 2-3 12-2 12v12l5 10h3l4-22 2-10-7-14zm368 0-16 13-1 3 5 15 4 18 2 2 16-12 1-2v-10l-4-18-4-9zm-306 16-5 15-4 16v6l18 10 5 2 2-6 5-26v-7l-19-10zm-51 4-5 22-1 13 9 11 5 4 3-17 3-14-1-6-12-13zm338 5-5 16-4 18v4l4-1 14-8-2-14-5-14zm-261 5-2 6-5 27v5l21 9 5 1 2-8 4-27v-5l-22-8zm165 2-9 13v1h8l3-1v-13zm-225 7-2 7-3 20v10l12 10 7 4 1-1 4-28v-8l-10-7-8-7zm-35 1-1 3 1 30 4 11 3 2 2-24v-7l-6-12zm384 4-15 11 3 25 2 12 10-5 2-2v-41zm-261 2-3 18-1 16 8 3 18 4 4-1 2-7-1-7-8-9-1 3 4 6v5l-4-1-6-9-8-16-2-5zm149 1-5 1 1 10 3-1 2-10zm-14 2-15 2-1 4 3 7v7l-3 6h-2l-3-5h-2l-2 9v5l13 1 20 3v-16l-2-20-1-3zm-200 9-5 32 1 4 18 10 6 2 1-1 3-29v-6l-22-12zm305 1-17 9-2 4-1 5-1 2 1 28 1 2 6-2 20-11 1-1-1-14-3-20-1-2zm-352 1-1 11v23l10 13 3 3h2l1-34-9-11zm76 13-2 10-2 25 3 3 18 7 8 2 2-36-8-4zm182 1v9l1 6 10-1 21-5 1-4-1-1-26-1zm60 4-20 5-1 1v14l1 10 27 1 2 4 1-1v-18l-1-13-2-3zm-300 3v34l4 5 13 10h2l1-35-10-8-8-6zm89 4-1 9-1 27 7 3 12 3h5l8-34-1-2-27-6zm183 1-12 3-1 3v4l-5 2h-13l1 9 4 2h29l1-3-2-20zm-67 2 1 4h7l-1-2zm151 1-10 6v37l8-4 3-3v-36zm-125 6v8h-6l1-7h-19l-4 1 1 10 1 1 12 1h18l3-1v-13zm-207 3-1 9v25l2 4 23 12h2v-36l-16-9zm315 2-19 10-5 3v14l2 3h2l1 9 21-1 2-5v-27l-1-6zm-286 14v35l5 3 16 6 10 3-1-37-27-10zm256 1-4 3-3 10 2 1 8-3 1-3-1-7zm-308 8 1 13 3 13 7 8 11 8h1l-1-13-2-14-6-7-12-8zm86 3v36l13 4 2-2 8-33-19-5zm274 0-6 4-6 5-4 3-3 14v14l5-2 13-10 2-2 2-11 1-15zm7 0-1 20 5-4 6-9 2-4v-3zm-344 13 1 12 4 18 8 5 14 7h2l-2-23-2-7-16-8-7-4zm315 3-9 4-10 7-3 4-4 13-2 14h3l-4 2-2 2-11 3-14 7-7 7-6 8-6 5-6 8v3l-6 2-12 7-7 4-1-1h-25l-7 1-1 14h14l16-2 1-3 2 3 13-3 13-4 8-7-1 5 9-2 11-4 5-5 5-10 3-7 5-8 1-3v4l10-3 10-4 4-5 3-11 4-6 3-9 3-11 1-9v-10zm-285 12 1 16 2 13 5 3 20 8 5 1-2-25-1-6zm-45 5 1 6 6 14 9 9h2l1 3 6 3-2-10-4-12-12-10-5-3zm346 2-6 4-10 8-7 19v3l4-1 6-4 7-6 6-12 2-6v-5zm-267 5v11l2 20h4l4-15 2-13-9-3zm220 3m-2 1v2l-4 2-11 13v3l10-1 7-3 1-1v-13l-1-2zm-274 5 2 9 5 13 6 5 16 8-2-10-3-13-8-5-14-7zm27 13 4 18 2 5 5 4 14 5h5l1-3v-13l-2-6-25-9zm-14 17 2 5 6 9 9 8 8 5h2l-1-6-7-12-17-9zm275 2-16 8-4 4-6 12 1 3 14-8 6-5 6-11zm-251 10 3 7 7 11 3 3h2l3-9v-6l-14-6zm66 24 2 9 3 4 16 2h9v-10l-2-4-3-1zm-9 0-23 1 5 5 22 6h5l-1-8-1-4zm54 0-14 1 1 11 1 3 3 1h24l2-4 1-12zm-92 3 5 5 14 7 4-1-9-9-7-2zm188 0-10 3-6 3-1 5 13-5 6-4v-2zm-165 6 4 7 10 5 15 5h2l-3-10-8-3-16-4zm137 2-18 4-2 4v5l19-5 7-3 1-4-1-1zm-107 5 4 9 1 1 21 2v-8l-2-3-12-1zm81 0-17 1-6 1-1 9 2 1 24-3 2-6v-3zm-53 2 1 10 23 1 2-1v-10z" fill="#173559"/>
<path transform="translate(459,239)" d="m0 0h15l5 1 6-1 4 2v15l-6 4-13 3-2-1-2 11h10l1-4h2v5h5v-5h3v5l8-2 6 2-1-3-4-1 3-3h2l5 5h4v3l4-1 1-4 5 2 2 1h12l4-1 7 2v-2h2v2l5-1-5-3v-2l5 1 8 4 17 1 6 2 11 9 4 4 2 7 4 4v5l4 6 3 10 4 31 2 5 1 4-1 1v19l4-2v4l-3 5-1 5 2 9 3 9-2 1-3-5-1 1-2 18-3 13 5-1-2 5-5 4 3 10 2 7-1 7-2-1-4-11-3 8-7 29 7-1-2 4-7 4-1 7-1 2v21l-1 2-2-1-2-7-1-13-1-2h-7l-20 5-1 12-4 4-1-2v-12l-14 4v6l-6 3h-9l-4-1-2 9h-1v-12h-7v8l-3 1-3-1 1-7h-17v-1h14v-3l-8 1h-9l-2-1v-8h13l19 3v-15l-2-23h-15l1-2 10-2h4v-22l2 3 2 15 1 2 6-1 8-33 2-11h-6l3-2 3-1 1-2v-7l-1-9 2-6h-3v-2l-9-1-38-1-94-1-14-1-3-2v-8l4-16 5-23 5-17 2-7 2-10 4-15v-5l-3-3v-2h3l2-4 2-3 1-5h-3v-2l2-1h16l4-2 8 1 6-2v2l5-2 2-1 1 2h5l3-3v4h4l1-5 2-1-1 6h5v-13l8-3 5-3 5-5 4-2 1-3-5-1h-3l-5-2-13-1zm63 241-5 1 1 10 3-1 2-10zm-3 27v9l1 6 10-1 21-5 1-4-1-1-26-1zm-35 14 1 4h7l-1-2z" fill="#173559"/>
<path transform="translate(678,589)" d="m0 0 5 1 8 7 10 9 8 7 11 10 11 9 14 13 11 9 12 11 11 9 13 12 8 7 11 10 11 9 10 9 7 7-1 4-10 10-7 8-11 12-8 8-7 8-10 10-7 8-13 13-1 2h-2l-2 4-12 13-18 18-8-6-10-9-11-9-14-13-11-9-12-11-8-7-10-9-11-9-15-14-8-7-14-12-13-12-11-9-5-4 2-4 15-16 10-10 7-8 8-9h2l2-4 18-18 7-8 13-13 7-8 14-15z" fill="#20397D"/>
<path transform="translate(376,11)" d="m0 0h165l1 1 1 24 1 106 1 75-60 2h-40l-67-2-1-24-1-109z" fill="#20397D"/>
<path transform="translate(175,86)" d="m0 0 5 2 11 8 11 9 13 11 10 8 16 13 28 22 11 9 17 14 9 7 17 14 14 11 13 10 2 3-8 10-13 15-7 8-12 14-11 13-9 11-12 13-7 8-12 14-7 8-8-6-9-7-12-10-14-11-17-14-14-11-10-8-14-11-11-9-14-11-16-13-15-12-14-11-7-6-1-3 9-11 9-10 9-11 10-11 7-8 11-13 12-13 9-11 12-14z" fill="#20397D"/>
<path transform="translate(717,78)" d="m0 0 5 3 110 110-2 4-24 24h-2v2l-8 7-6 7h-2l-1 3h-2v2l-8 7-8 8-8 7-19 19-8 7-14 14-8 7-23 23-6 5-4-2-12-11-7-8-16-16-8-7-68-68-1-3 17-17 8-7 15-15 8-7 19-19h2v-2l8-7 17-17 8-7 9-9 5-4 5-6 8-7 17-17z" fill="#20397D"/>
<path transform="translate(249,583)" d="m0 0 4 2 8 10 16 17 12 13 9 11 9 9 7 8 11 12 7 8 12 13 14 16-1 3-9 7-11 9-10 9-10 8-13 11-10 8-14 12-10 8-13 11-17 14-11 9-11 10-20 16-4-1-9-10-9-9-9-11-15-16-7-8-24-26-9-11-8-8-14-16 1-5 11-10 11-9 13-11 22-18 14-12 11-9 13-11 11-9 14-12 10-8 12-11 11-9z" fill="#20397D"/>
<path transform="translate(232,389)" d="m0 0h8l1 1v146l-1 2h-228l-1-1v-146l1-1z" fill="#20397D"/>
<path transform="translate(379,708)" d="m0 0h83l81 1 1 1v196l-5 3-155-1-5-2-1-4v-70z" fill="#20397D"/>
<path transform="translate(481,221)" d="m0 0h3l-1 7 8 1 10 4 3 1 15 1-1-2-6-1h-7l-2-4-18-6v-1h13l25 6 21 8 25 13 17 12 14 12 8 7 10 10 11 14 11 15 1 6 3 1 7 11 8 16 9 25 6 18 3 19h-17l-3-16-2-3-2 1-1-9-7-14-7-12-2-1v-9l-3-14-4-2-10-9-7-8-1-5 4-1-3-6h-3l-4-2-2 1 1-4 6 2-3-6-5-4-3-1-1 2-2-6-10-9-19-10-17-6-6-2-11-2-8-3 1-5h-3l1-4h15l-1-1-15-2-1 4h-2v-2l-6-1 3 6 1 5 20 7 6 3 2-3 3 5h-2v2l2 1-5-1-12-5-13-6-2-1 1 5 18 8-2 3-4-1-8-5-7-2-2 5-3 2-2-2 3-8h-3l-1 4-7-1-7-6h-3l2 4 3-1-1 4h-2l1 3 3 1-1 2h-3l-3-6v-3h-2v-2h-2v6l-3-1v-3l-3-1 1 6h-2l-1-5-2 1-3 9-3-1h2l-1-8-2-3 11-2 7-3 2-3v-10l1-3-2-1 14-1v-2l-9-3-8-2-1 3h-2v-5h-5v6l-2-1-1-6h-3l1 8 1 2-6 1-6-1v-7l-1-4-6-1 1 5-8-4 3 6v2l5 2 5 1v2h13l7 3h3l3 1-1 4-6 3-5 6-4 2-6 1-2 2h-2l-2 4-5 1 1-5-5 5-3 2-1-3-3 5-1-4 3-7-2-1-2 4-2 3-1 5-5 2 3-7 3-10-5 5-1 2h-2l1 5-5 3 2-6v-5l4-2v-3l-8-1-7 3 3 1 2-2 9-1-3 3-7 3-4 1v3l3 1 2 4 4 2-4 1h-3l-2-4-2-1-2 6h5v1l-14-1 4-3 4-1v-5l-17 8-7 3v4l10-4 4 2-9 5 2 4 3 2h-3l2 4-6 4-6 5-4 4-2-7-2-4h-6l-9 5-2-1 10-6 9-6 5-3v-5h-4l-15 9-6 4h-2l2-5 3-3 8-4h2l-1-5-6 2 1-10 2-1 1 4 10-4h2v-5l-10 4-2-1 4-5 11-4 9-1 20-5 2-3h2v-2l-29 8-5 1-2-2h2l2-4 3-2h8l16-3 6-2 2-4h-9l-1 5-7 2-15 1-6 1 2-2 9-3 12-8h9l11 2 2-2-7-2-1-1h-7-3l-19 8-12 5-11 7-6 7-4 1-3 12-2-1v-2h-3l1 7-2 1-3-1 1-6-13 8-1 2 12-2-1 3-12 6-9 7v8l16-12 5-3h3l-1 4-20 14-4 4v10l10-8 16-13 1-3v-7h3l2 5v3l2 1 1 9 1 6-5-1-3-1-2 4-6 13 2 9 3 2 4-4h3v2l4 2 7 9 8 16 1 7-2 5-4-4h3l1-5-4-6-2-4-4 4-3 5 7 6 5 5 1 5-1 11h4l2-10 2-13 6-22 4-15 3-12v-5l5-5-2 9-1 8-2 7-5 17-5 23-4 16v8l2 1 14 1 94 1 38 1 9 2v2h3l-2 10-3 1-4 13 3 3-4 2-5 9-6 5v12h-1l-1 19h-1v-13l-5 5-5 8 3 2-6 1 9 1v1l-15 1v-9l5-23 1-16-1-5-4-1h-73l-4 18-11 43-5 16-4-5-5-5 4 8v5l-4 1-6-7-9-17-2-8h-2l-2 18-2 16-3-2-6 2-1 2-19-7h-3l-1 8h-1l-1-6h-2l-1 3v-10l-23-12v5l-4-4-1-6-9-6-8-7h-1l-3 19-2-4-2 1 2-13 1-8-9-11-3-3-3 11-3-4 2-14-6-12v-2h-2l-2 12-4 1 4-20-1-10h-2l-1 5-4 16h-1l1-12 5-21 2-13 5-8 8-18v-13l6-12 8-12 11-15 6-12 6-8h2l-1 6 5-3 6-5 5-8-8 2 4-5 13-10 11-11 11-6 11-5 5-3h2l2-4 17-8 15-6 14-1v2l8 1 6 3 4-1-1-6 6 2 5-1 8-3h7l8 2v-3h2l1 4 8 1zm-19 4 1 11 5 1v-9l-5-3zm-23 7v2l8 6 2-1-1-4-3-1-1-2zm-7 2v4l8 3h2v-3l-7-4zm87 1m-16 2-1 2 3-1zm21 0-15 1v2l2 1 10 1 10-1v-3zm10 1 3 4 7 2 4-1-5-4zm-108 1-6 5 2 1 6-4v-2zm2 3m76 0-9 3-1 3 8 2 1 3-6 3v3l3 2 2 4 5-2 1-3h5l1-6-4-8-4-4zm-86 3m124 1v3l7 3 4-1-2-4zm-123 1-3 2 1 4 15-4 2-2zm119 5 1 2 2-1zm-127 0-16 5-12 3-1 5 3 1 15-6 10-3 2-2zm134 1 1 5 16 7 3 1-2-4-8-7-6-2zm-192 2-8 5 2 1 9-3 1-3zm56 4-22 8-4 1v5l5 1 15-7 8-4 1-4zm-67 3m223 4m-189 5-4 4v5l6-2 4-4-1-3zm-48 8-3 4 4-2 1-2zm57 8-9 7v2l5 5 12-8-2-4-2-2zm-71 10-9 7-11 11-2 4v10l5-5 8-9 8-7 2-2v-9zm33 3-10 8-10 9-6 5 3 9 3 3 10-11 3-5 2-5 7-6 2-1-1-5zm-34 11-10 10-7 8-5 6v13l2 1 7-8 10-11 6-7v-11zm326 13-1 5h3v-5zm-354 3-4 5-7 14-1 5 2 2 9-13 3-4v-8zm31 0-12 13-9 11-2 4 4 11 4 1 9-12 8-11 5-5-1-5-3-7zm20 3-7 6 1 4 5 6 5-1 3-5-1-4-4-6zm305 1-1 5 4 7 4 2 1-1v-6l-5-5h-2zm-290 4-7 10-4 5 1 3 12 9h3l6-11v-5l-9-10zm-27 6-11 14-11 16 2 4 7 9h4l9-16 8-11 2-6-7-10zm-38 2-4 4-10 17-1 8 2 7 5-5 6-11 5-8-2-12zm51 12-11 15-10 17 2 4 14 10 3-3 13-26 5-8-11-6zm-47 5-7 10-7 12-1 8 5 10 3-1 13-25-1-7-4-7zm63 5 1 4-8 14-9 17 1 5 16 9 3-3 10-26 1-6-5-1 1-5-8-8zm-87 12-4 6-7 20 1 7 2 6 2-2 6-16 4-10-1-8-1-3zm33 0-4 5-10 19-1 8 10 12 3-1 8-18 5-10-1-6-9-9zm-28 17-4 8-7 20v7l5 9h3l7-18 4-12-3-9-3-5zm42 0-8 16-6 15 6 7 11 8 2-1 12-32v-3l-9-6-5-4zm54 0-5 10-2 7v5l4 1 4-6 3-11v-6zm-33 14-13 31v5l13 8 5 3h3l5-15 4-14 2-5-1-4-17-9zm-53 5-4 10-7 21 1 5 9 11 3 1 6-18 5-16-11-14zm77 7-3 7-8 25v6l9 4 11 5h3l-1-7-3-5-2-9-1-24zm-62 11-9 31v6l14 11 3 3h2l3-12 6-21v-5l-13-10-3-3zm23 18-5 15-4 16v6l18 10 5 2 2-6 5-26v-7l-19-10zm26 14-2 6-5 27v5l21 9 5 1 2-8 4-27v-5l-22-8z" fill="#0F88BA"/>
<path transform="translate(1707,380)" d="m0 0h59l5 3 1 4 1 14 1 149-6 2-26 1-23 3-25 5-16 4-8 4h-4l-4-16-6-28-5-21-5-12-7-12-7-10 1-12v-29l-4-15-4-7-1-4 9-6 15-7 17-4 32-5z" fill="#9B9B9A"/>
<path transform="translate(1407,412)" d="m0 0 5 1 6 2 2 12 9 32 8 27 5 15 2 1 4-16 13-45 1-6-3-2h3v-3l-4-1v-2l-5-2-10-6-4-2v-2l8-1h79l8 2 1 2 1 25 1 4v15l3 4-1 3-3-3-1 92-1 1h-39l-1-104-3 2-14 46-11 40-5 15-1 1h-35l-2-2-12-42-5-17-11-36-2-4-2-1 1 3-1 98-4 1h-36l-1-3v-140l1-1h57z" fill="#18365A"/>
<path transform="translate(1776,600)" d="m0 0 5 2 9 8 9 13 9 16 10 26 6 22 3 15 2 14v8l-8 3-90 17-32 5-18 2h-15l-2-4v-60l2-24 4-19 6-18 4-7 3-1 16-1 40-7 31-8z" fill="#9B9B9A"/>
<path transform="translate(659,559)" d="m0 0h2l-1 6h240l168-1h189l274 1 4 5 1 5-4 7-2 1h-869l-3-4-6 1-5 3-5 6-5 15 3-3 3-5h2l-1 4-5 7-6 5-6 10-4 6-2-2-14 9-5 10v3l9-9h2l-2 4-7 7-9 6-8 6-21 12-5 5-10 6-18 8-18 6-26 5-17 1h-25l-16-1-26-6-24-9-17-9v-3l5 2 10 6 7 3h3l-2-3 2-3 3 1v3l5 5 18 7 6 2-4-10-23-6v-3l20 5-2-11h2l4 10 1 1 25 3v-8l2-4 1 12h27l2-9 3-1-1 10 23-2h7l1-4 2 3 13-3 13-4 6-6h2l-1 5 18-6 4-2 4-7 5-11-1-2 4-2 5-12h1v6l17-6 5-5 3-11 4-6 3-9 3-11 1-9h1v14l11-7 8-7 2-11 1-11 2-2 2 1v16l8-10zm-25 35-6 4-10 8-7 19v3l4-1 6-4 7-6 6-12 2-6v-5zm-35 46-16 8-4 4-6 12 1 3 14-8 6-5 6-11zm-44 37-10 3-6 3-1 5 13-5 6-4v-2zm-28 8-18 4-2 4v5l19-5 7-3 1-4-1-1zm-107 5 4 9 1 1 21 2v-8l-2-3-12-1zm81 0-17 1-6 1-1 9 2 1 24-3 2-6v-3zm-53 2 1 10 23 1 2-1v-10z" fill="#0E72A7"/>
<path transform="translate(1231,413)" d="m0 0h22l17 2 14 4 15 8 10 9 6 7 8 14 3 9 1 7v26l-3 15-6 12-8 11-8 8-14 8-15 5-23 5h-12l-25-5-14-4-12-6-10-9-8-10-7-14-3-8-1-6v-31l5-15 9-15 10-10 13-8 12-5 13-3zm1 33-9 3-10 9-4 9-2 9v21l4 16 7 9 9 5 6 2h20l10-4 9-8 4-11 2-10v-13l-1-13-5-12-9-8-7-3-5-1z" fill="#183659"/>
<path transform="translate(796,413)" d="m0 0h12l20 1 14 3 16 8 11 11 7 14v3l-37 6h-9l-9-10-10-5-4-1h-14l-11 4-9 6-6 9-4 13v25l4 13 6 8 7 5 8 3h27l13-4 7-4 1-2v-11l-3-1h-17l-12-1-2-5v-17l2-5 7-1 39-1h16l11 1 2 5v51l-2 5-11 7-22 9-22 5-13 2h-18l-23-4-18-6-10-6-8-7-10-14-5-11-5-21v-14l4-18 8-16 9-11 12-9 15-7 11-3z" fill="#183659"/>
<path transform="translate(1059,413)" d="m0 0h16l19 2 12 4 11 6 10 8 8 10 6 11v2l-15 4-23 4h-5l-6-9-7-6-13-4h-10l-12 4-8 7-5 8-2 5-1 6v23l3 13 6 9v2l4 2 10 4h19l10-4 3-1 2-4 6-9 3-7 2-1 18 4 22 7-1 6-8 15-7 9-8 6-14 7-16 4-17 3-14-1-27-6-12-5-9-6-9-9-9-14-5-15-2-13v-16l3-16 4-11 6-10 9-10 14-9 12-5 14-3z" fill="#183659"/>
<path transform="translate(1741,967)" d="m0 0 8 2 20 11 16 12 13 12 17 17 9 11 8 10 7 9 6 7 7 9 10 12v2l4 2 9 11 11 11 2 3-1 7-13 20-5 1-17-9-28-18-13-9-12-8-27-21-20-20-11-9-14-15-8-8-7-9-1-2v-9l6-12 13-13z" fill="#9B9B9A"/>
<path transform="translate(921,219)" d="m0 0 5 1 6 17 5 14 4 5 8 7 17 13 3 4 5-1 10-5h7l5 3 3 4 1 7-3 7-7 6-3 2h9l11 8 16 11 14 10 36 9 9 2 1 4-12 16-11 12-2 2-9-2-28-10-13-7-12-11-9-9-8-7-9-9-1-5-10 5-8 1 9 14 6 15v13l-3 5-4 2h-7l-13-5-12-7-11-8-11-11-7-8-7-10-4-8-1-5 3-6 4-3 6-2h13l14 4 11 6 3 2 1-12 4-7-4-2-5-5v-2l-4-2-18-18-3-5-5-21-1-6v-9z" fill="#727170"/>
<path transform="translate(610,304)" d="m0 0 5 5v3l-3 1-1 5 6 11 16 20 2 1 1-2 1 8-3 7-5 9 1 5 12 22 3 5 7-11h1v5l-5 8-1 9 11-1 3-1h9l15 2 1 1 1 37v105l-1 1h-39v3l-3-1v-2l-8 3-8 7-3 2-3 14h-1v-10l-10 4-11 7-3 4-4 13-3 14 5-1-2 2-3 1-2 6-1-4-14 5-12 7-14 16-2 1 1-4 1-2h2l7-14 4-7 13-32 8-25 2-5 4-2 8 1 3 3 1 9 21-2 1-4v-33l-16 8-10 4 1-4 24-13-1-14-3-22-12 5v-2l-3-1 13-7-2-16 3-3 3 14h3l13-10 1-2v-10l-4-18-3-8-4 1-9 7v-3l10-10-1-6-4-11 3-1 5 12v2l3-1 7-9 3-1 1-8-8-14-6-11-1-2-6 1 1-4 1-3-5-8-2-3 3-2 6 8h2l6-10-1-5-10-12-8-10-3-3-2-9-1-8zm25 120-5 4 2 9 2 5h2v-18zm-1 53-15 11 3 25 2 12 10-5 2-2v-41zm1 45-10 6v37l8-4 3-3v-36zm-48 80m-2 1v2l-4 2-11 13v3l10-1 7-3 1-1v-13l-1-2z" fill="#183659"/>
<path transform="translate(1689,785)" d="m0 0h12l8 3 9 8 6 8 3 10 5 46 1 22v70l-4 7-5 4-6 2h-16l-10-1-7 1-3-6-6-36-5-37-3-28-1-13v-48l9-7z" fill="#9B9B9A"/>
<path transform="translate(1793,777)" d="m0 0h31l6 3 1 7v71l-2 38-4 44-3 13-7 3-8 1h-15l-15-3-3-3-1-4v-61l2-51 3-42 2-13 3-2z" fill="#9B9B9A"/>
<path transform="translate(1052,599)" d="m0 0h102l5 5 1 2v48l-5 9-5 1-15 1-1 24-4 8-3 2h-18l-5-6-2-26-1-2-53-1-1-4v-59z" fill="#363553"/>
<path transform="translate(481,221)" d="m0 0h3l-1 7 8 1 10 4 3 1 15 1-1-2-6-1h-7l-2-4-18-6v-1h13l25 6 21 8 25 13 17 12 14 12 8 7 10 10 11 14 11 15 1 6 3 1 7 11 8 16 9 25 6 18 3 19h-17l-3-16-2-3-2 1-1-9-7-14-7-12-2-1v-9l-3-14-4-2-10-9-7-8-1-5 4-1-3-6h-3l-4-2-2 1 1-4 6 2-3-6-5-4-3-1-1 2-2-6-10-9-19-10-17-6-6-2-11-2-8-3 1-5h-3l1-4h15l-1-1-15-2-1 4h-2v-2l-6-1 3 6 1 5 20 7 6 3 2-3 3 5h-2v2l2 1-5-1-12-5-13-6-2-1 1 5 18 8-2 3-4-1-8-5-7-2-2 5-3 2-2-2 3-8h-3l-1 4-7-1-7-6h-3l2 4 3-1-1 4h-2l1 3 3 1-1 2h-3l-3-6v-3h-2v-2h-2v6l-3-1v-3l-3-1 1 6h-2l-1-5-2 1-3 9-3-1h2l-1-8-2-3 11-2 7-3 2-3v-10l1-3-2-1 14-1v-2l-9-3-8-2-1 3h-2v-5h-5v6l-2-1-1-6h-3l1 8 1 2-6 1-6-1v-7l-1-4-6-1 1 5-8-4 3 6v2l5 2 5 1v2h13l7 3h3l3 1-1 4-6 3-5 6-4 2-6 1-2 2h-2l-2 4-5 1 1-5-5 5-3 2-1-3-3 5-1-4 3-7-2-1-2 4-2 3-1 5-5 2 3-7 3-10-5 5-1 2h-2l1 5-5 3 2-6v-5l4-2v-3l-8-1-7 3 3 1 2-2 9-1-3 3-7 3-4 1v3l3 1 2 4 4 2-4 1h-3l-2-4-2-1-2 6h5v1l-14-1 4-3 4-1v-5l-17 8-7 3v4l10-4 4 2-9 5 2 4 3 2h-3l2 4-6 4-6 5-4 4-2-7-2-4h-6l-9 5-2-1 10-6 9-6 5-3v-5h-4l-15 9-6 4h-2l2-5 3-3 8-4h2l-1-5-6 2 1-10 2-1 1 4 10-4h2v-5l-10 4-2-1 4-5 11-4 9-1 20-5 2-3h2v-2l-29 8-5 1-2-2h2l2-4 3-2h8l16-3 6-2 2-4h-9l-1 5-7 2-15 1-6 1 2-2 9-3 12-8h9l11 2 2-2-7-2-1-1h-7-3l-19 8-12 5-6 1 1-3 17-8 15-6 14-1v2l8 1 6 3 4-1-1-6 6 2 5-1 8-3h7l8 2v-3h2l1 4 8 1zm-19 4 1 11 5 1v-9l-5-3zm-23 7v2l8 6 2-1-1-4-3-1-1-2zm-7 2v4l8 3h2v-3l-7-4zm87 1m-16 2-1 2 3-1zm21 0-15 1v2l2 1 10 1 10-1v-3zm10 1 3 4 7 2 4-1-5-4zm-108 1-6 5 2 1 6-4v-2zm2 3m76 0-9 3-1 3 8 2 1 3-6 3v3l3 2 2 4 5-2 1-3h5l1-6-4-8-4-4zm-86 3m124 1v3l7 3 4-1-2-4zm-123 1-3 2 1 4 15-4 2-2zm119 5 1 2 2-1zm-127 0-16 5-12 3-1 5 3 1 15-6 10-3 2-2zm134 1 1 5 16 7 3 1-2-4-8-7-6-2zm-136 6-22 8-4 1v5l5 1 15-7 8-4 1-4zm156 7m-189 5-4 4v5l6-2 4-4-1-3zm9 16-9 7v2l5 5 12-8-2-4-2-2zm254 37-1 5h3v-5zm2 7-1 5 4 7 4 2 1-1v-6l-5-5h-2z" fill="#1073A7"/>
<path transform="translate(370,243)" d="m0 0 3 2-7 5-6 7-4 1-3 12-2-1v-2h-3l1 7-2 1-3-1 1-6-13 8-1 2 12-2-1 3-12 6-9 7v8l16-12 5-3h3l-1 4-20 14-4 4v10l10-8 16-13 1-3v-7h3l2 5v3l2 1 1 9 1 6-5-1-3-1-2 4-6 13 2 9 3 2 4-4h3v2l4 2 7 9 8 16 1 7-2 5-4-4h3l1-5-4-6-2-4-4 4-3 5 7 6 5 5 1 5-1 11h4l2-10 2-13 6-22 4-15 3-12v-5l5-5-2 9-1 8-2 7-5 17-5 23-4 16-1 9 5 2 17 1 41 1 16 1-4 2 6 3 1 1v7l-2 4h-2v2l-6 2-17 2 4 2-11 1-3 1-2 2-2 3-4 8-6 7h-11l-11 3-14 3-2 4-3-4-2-9-1-24-4-1-9 28-2-2-3 5-1-2 7-24 2-5-1-4-16-8-4 8h-5l3-10 1-3-5-2-9-7h-3l-9 19-4 12 10 9 6 4-1 5-11-7-5-5-3-1-1 7-6 3 3-10 1-4-9-12 2-1v2l6 2 4 2 8-18 5-10-1-6-8-8-4 4-10 19-2 8-6 2-1-7-4-9h-2l-2 5h-3v-3l3-9-1-10 3-6 3 6 6-10 8-13-2-11-3 3-7 12-4-3v-5l4-1 7-10 3-4v-8l-4 2v-3l10-14 6-12 6-8h2l-1 6 5-3 6-5 5-8-8 2 4-5 13-10 11-11 11-6 11-5 5-3h2zm-17 12-8 5 2 1 9-3 1-3zm-11 7m-14 17-3 4 4-2 1-2zm-14 18-9 7-11 11-2 4v10l5-5 8-9 8-7 2-2v-9zm33 3-10 8-10 9-6 5 3 9 3 3 10-11 3-5 2-5 7-6 2-1-1-5zm-34 11-10 10-7 8-5 6v13l2 1 7-8 10-11 6-7v-11zm3 16-12 13-9 11-2 4 4 11 4 1 9-12 8-11 5-5-1-5-3-7zm20 3-7 6 1 4 5 6 5-1 3-5-1-4-4-6zm15 5-7 10-4 5 1 3 12 9h3l6-11v-5l-9-10zm-27 6-11 14-11 16 2 4 7 9h4l9-16 8-11 2-6-7-10zm13 14-11 15-10 17 2 4 14 10 3-3 13-26 5-8-11-6zm-47 5-7 10-7 12-1 8 5 10 3-1 13-25-1-7-4-7zm63 5 1 4-8 14-9 17 1 5 16 9 3-3 10-26 1-6-5-1 1-5-8-8zm14 29-5 10-2 7v5l4 1 4-6 3-11v-6z" fill="#738BAF"/>
<path transform="translate(1216,656)" d="m0 0h14l13 3 9 7 5 6 5 10 2 11 1 81 2 18v6l-4 1-19 1-3-1-3-18-5 5-10 11-10 4h-10l-8-3-5-4-7-11-3-9v-12l4-13 6-11 7-8 13-8 18-8 8-3 1-2v-17l-3-9-5-5-9-1-7 3-3 7-2 12h-26l-2-5 4-16 5-8 7-7 9-5zm20 73-10 5-10 8-6 7-2 6v12l3 7 4 4 7 2 8-3 7-7 1-2v-31l-1-8z" fill="#373654"/>
<path transform="translate(1431,656)" d="m0 0h16l13 3 8 6 7 10 5 14 2 24v11l-1 4h-56l1 34 2 9 5 6 8 2 7-3 3-4 2-6 2-15h27l-1 17-3 10-4 8-6 7-10 5-16 3-14-1-9-3-10-9-7-14-3-12-2-18v-33l2-20 4-13 7-11 9-7 7-3zm7 21-7 3-4 6-1 3-1 11v14l5 1 24-1v-18l-2-9-5-8z" fill="#373654"/>
<path transform="translate(909,415)" d="m0 0h48l1 2v141l-1 1h-48l-1-1-1-137z" fill="#19375A"/>
<path transform="translate(1672,233)" d="m0 0h14l9 5 8 9 8 16 5 17 2 17v9l-3 19-4 14-6 9-23 2-11 2h-7l-7-8-5-10-6-20-3-26v-11l3-16 6-12 9-10 8-5z" fill="#9B9B9A"/>
<path transform="translate(1908,1103)" d="m0 0h7l7 3 6 5 5 7 3 9 1 11v53l-3 31-4 17-5 13-4 7-4 3h-19l-7-10-2-6-3-21-4-52v-17l12-5 5-8 2-6v-16l-3-10v-4z" fill="#9B9B9A"/>
<path transform="translate(771,566)" d="m0 0 5 2h64l9-1h8 3l4 1 5-1h4l4 1 5-1h16 2 3v2l4-1 66 1 26-1 5-1h21v2h106l15-1 5-1h61l1 1h115l2 1 1-2v2h16l18-1 19 1h18l5-2h12l1 1 14 1h100l2 6-1 3-21-1h-856l-2-2 1-5 2-1h68l13-2h20z" fill="#0C6599"/>
<path transform="translate(1291,600)" d="m0 0h27v198l-1 1h-24l-2-3z" fill="#383855"/>
<path transform="translate(1346,600)" d="m0 0h26v198l-2 1h-23l-2-7v-191z" fill="#363654"/>
<path transform="translate(1077,673)" d="m0 0h7l5 3 2 6 1 29 3 6 2 1 27 1 4 4 1 2v75l-3 4-4 1h-44l-2-7v-123z" fill="#363654"/>
<path transform="translate(1949,443)" d="m0 0h2l6 8 10 7-1 7-12 24-16 24-12 16-12 13-7 8-10 10-8 7-6 4-8 1-4-4-1-8 4-8v-27l3-6 10-13 7-8 16-17 14-14 11-12 10-9z" fill="#9B9B9A"/>
<path transform="translate(1707,380)" d="m0 0h59l5 3 1 4 1 14 1 149-6 2-26 1-23 3-25 5-16 4-8 4h-4l-4-16-6-28-5-21-5-12-7-12-7-10 1-12v-29l-4-15-4-7-1-4 9-6 15-7 17-4 32-5zm6 2-22 2-26 4-19 5-3 2 3 11 5 13 4 14 2 10v18l2 9 8 16 7 15 3 9 7 29 3 16 2 3 9-1 22-4 21-3 23-1 6-1 1-3v-124l-1-26-1-10-4-3z" fill="#71706F"/>
<path transform="translate(1557,656)" d="m0 0h10v28h-22l-8 5-4 7-1 4-1 98-2 1h-23l-2-4v-136l1-1h25l1 1v15l5-3 9-10 7-4z" fill="#363654"/>
<path transform="translate(1738,557)" d="m0 0h32l3 5 3 13 1 14-3 6-19 7-30 7-20 3h-23l-6-4-5-10v-19l2-5 9-4 21-7 26-5z" fill="#20397D"/>
<path transform="translate(246,442)" d="m0 0h1l2 10 3-7 2-2v8l-1 6v12l5 10h1l3-18 3-1v10l-2 11v7l9 11 3 3 3-13 3-2v22l15 12 3 1 4-28 1-2 3 1v9l-3 24 18 10 6 2 3-25 1-3 3-1v16l-1 18 9 3 17 6 2 1v-14l1-22-3-2v-2l6-3 2 1 2 2 25 6 3 2-2 3-14-2-12-3-2-1-1 36 15 4-3 1v2l2 1-7-1-8-2v36l10 3-2 2-7-1 2 23v7h-2l-1 2-11-3-17-7 5 18 2 5 4 3 14 5 5 1-4 3-12-5h-3l6 11 5 8-1 5-4-2-8-7-11-7-11-9-2-1-1-7-5-9-10-7-6-3-6-7-4-6-5-6v-2h-2v-3l2-1-3-9-3-6-5-6-6-2-8-19-6-18-2-9 7 6 3 8 5 19 10 14-1-13-2-13-8-9v-2l-4-2-3-3-2-5-5-2-4-15-2-19v-33l-1-7zm4 31-1 3 1 30 4 11 3 2 2-24v-7l-6-12zm11 20-1 11v23l10 13 3 3h2l1-34-9-11zm18 21v34l4 5 13 10h2l1-35-10-8-8-6zm24 17-1 9v25l2 4 23 12h2v-36l-16-9zm29 16v35l5 3 16 6 10 3-1-37-27-10zm-52 9 1 13 3 13 7 8 11 8h1l-1-13-2-14-6-7-12-8zm23 16 1 12 4 18 8 5 14 7h2l-2-23-2-7-16-8-7-4zm30 15 1 16 2 13 5 3 20 8 5 1-2-25-1-6zm-45 5 1 6 6 14 9 9h2l1 3 6 3-2-10-4-12-12-10-5-3zm23 16 2 9 5 13 6 5 16 8-2-10-3-13-8-5-14-7zm13 30 2 5 6 9 9 8 8 5h2l-1-6-7-12-17-9z" fill="#2B4F8A"/>
<path transform="translate(1756,1179)" d="m0 0 4 1 5 3 8 2h17l8-1 4 5v2l3 1 6 8 8 10 12 18 4 9v10l-6 8-7 4h-14l-13-5-9-5-10-7-13-11-6-7-4-10-2-13 1-12 3-8z" fill="#9B9B9A"/>
<path transform="translate(1813,431)" d="m0 0 5 1 6 10 12 19 8 13 13 22 8 15 2 2 2 26v12l-3 5-1 1h-7l-4-2-9-13-17-25-14-22-22-33-4-7 2-5 4-5 11-9z" fill="#9B9B9A"/>
<path transform="translate(1776,600)" d="m0 0 5 2 9 8 9 13 9 16 10 26 6 22 3 15 2 14v8l-8 3-90 17-32 5-18 2h-15l-2-4v-60l2-24 4-19 6-18 4-7 3-1 16-1 40-7 31-8zm-3 4-12 3-22 5-33 6-3 1-8 20-4 16-1 11-2 51v27l3 3 14-2 18-2 21-4 11-2 13-2 40-7 17-4 1-9-3-21-3-10-3-15-8-21-8-16-6-10-7-9-5-6h-2v-2z" fill="#71706F"/>
<path transform="translate(1741,967)" d="m0 0 8 2 20 11 16 12 13 12 17 17 9 11 8 10 7 9 6 7 7 9 10 12v2l4 2 9 11 11 11 2 3-1 7-13 20-5 1-17-9-28-18-13-9-12-8-27-21-20-20-11-9-14-15-8-8-7-9-1-2v-9l6-12 13-13zm21 13-1 3v31l2 18 5 18 6 17 4 6 11 9 11 8 17 11 23 15 24 15 5 3h4l4-8 4-5 4-9-1-5-9-10-5-5-12-14-8-9-10-13-11-13-11-14-9-10-7-8-14-14-14-11-10-6z" fill="#71706F"/>
<path transform="translate(1560,392)" d="m0 0 6 1 9 7 10 10 5 10 3 12v19l-4 16-8 16-6 7-7 3-7-1-8-7-4-8-5-15-2-17-1-19v-14l4-4 8-5 4-5z" fill="#9B9B9A"/>
<path transform="translate(1689,785)" d="m0 0h12l8 3 9 8 6 8 3 10 5 46 1 22v70l-4 7-5 4-6 2h-16l-10-1-7 1-3-6-6-36-5-37-3-28-1-13v-48l9-7zm3 2-6 5-2 7v39l2 24 6 42 4 34 4 21 2 3 10 1 9-2 6-4 3-7 1-36v-50l-3-27-2-10-3-20-8-10h-2v-2l-8-6-8-2z" fill="#71706F"/>
<path transform="translate(370,243)" d="m0 0 3 2-7 5-6 7-4 1-3 12-2-1v-2h-3l1 7-2 1-3-1 1-6-13 8-1 2 12-2-1 3-12 6-9 7v8l16-12 5-3h3l-1 4-20 14-4 4v10l10-8 16-13 1-3v-7h3l2 5v3l2 1 1 9 1 6-5-1-3-1-2 4-6 13 1 9-3-3-5 2-3 3 1 6 1 3-4-1-1-3-3 1-10 13-11 16 2 4 7 9h2l9-16 7-9 4-2-1 5-9 13-7 12 2 4 13 9 3-4 12-24 5-7 3 4-8 14-9 17 1 5 10 5-1 3-2 2-11-6-4 8h-5l3-10 1-3-5-2-9-7h-3l-9 19-4 12 10 9 6 4-1 5-11-7-5-5-3-1-1 7-6 3 3-10 1-4-9-12 2-1v2l6 2 4 2 8-18 5-10-1-6-8-8-4 4-10 19-2 8-6 2-1-7-4-9h-2l-2 5h-3v-3l3-9-1-10 3-6 3 6 6-10 8-13-2-11-3 3-7 12-4-3v-5l4-1 7-10 3-4v-8l-4 2v-3l10-14 6-12 6-8h2l-1 6 5-3 6-5 5-8-8 2 4-5 13-10 11-11 11-6 11-5 5-3h2zm-17 12-8 5 2 1 9-3 1-3zm-11 7m-14 17-3 4 4-2 1-2zm-14 18-9 7-11 11-2 4v10l5-5 8-9 8-7 2-2v-9zm33 3-10 8-10 9-6 5 3 9 3 3 10-11 3-5 2-5 7-6 2-1-1-5zm-34 11-10 10-7 8-5 6v13l2 1 7-8 10-11 6-7v-11zm3 16-12 13-9 11-2 4 4 11 4 1 9-12 8-11 5-5-1-5-3-7zm-26 33-7 10-7 12-1 8 5 10 3-1 13-25-1-7-4-7z" fill="#758CAD"/>
<path transform="translate(658,578)" d="m0 0 35 1h243l64-1h386l140 1 7 1-3 3h-869z" fill="#1089BA"/>
<path transform="translate(1474,372)" d="m0 0h32l6 1 3 10 4 13 6 10v2l-10 1h-32l-72-2-5-4-1-2 1-9 8-6 16-6 18-5 13-2z" fill="#9B9B9A"/>
<path transform="translate(1793,777)" d="m0 0h31l6 3 1 7v71l-2 38-4 44-3 13-7 3-8 1h-15l-15-3-3-3-1-4v-61l2-51 3-42 2-13 3-2zm2 2-2 6-3 40-2 60-1 36 1 24 2 7 6 2h13l9-3 3-8 3-19 4-63 1-40-1-29-1-10-2-2-5-1z" fill="#71706F"/>
<path transform="translate(659,559)" d="m0 0h2l-1 6h240l168-1h189l274 1 2 4-35 1h-71l-7-1-4-1h-9l-7 2h-17l-18-1-20 1-19-1h-113l-1-1h-65l-4 1-20 1h-28l-70-1v-2h-4l-1 2v-2l-18 1-3 1-26 1-70-1v-2h-3l-1 2-1-1h-20l-2 1-4-1-3 1-4-1h-3l-4 1-4-1h-10l-4 1h-64l-5-2-15 1h-16l-13 2h-68l-2 1 1 6-5-1-1-4 5-8z" fill="#2788B6"/>
<path transform="translate(481,221)" d="m0 0h3l-1 7 8 1 10 4 3 1 15 1 5 2v1h-13l-3-2v2h-5l-2 1v-2l-9-3-8-2-1 3h-2v-5h-5v6l-2-1-1-6h-3l1 8 1 2-6 1-6-1v-7l-1-4-6-1 1 5-8-4 3 6v2l5 2 5 1v2h13l7 3h3l3 1-1 4-6 3-5 6-4 2-6 1-2 2h-2l-2 4-5 1 1-5-5 5-3 2-1-3-3 5-1-4 3-7-2-1-2 4-2 3-1 5-5 2 3-7 3-10-5 5-1 2h-2l1 5-5 3 2-6v-5l4-2v-3l-8-1-7 3 3 1 2-2 9-1-3 3-7 3-4 1v3l3 1 2 4 4 2-4 1h-3l-2-4-2-1-2 6h5v1l-14-1 4-3 4-1v-5l-17 8-7 3v4l10-4 4 2-9 5 2 4 3 2h-3l2 4-6 4-6 5-4 4-2-7-2-4h-6l-9 5-2-1 10-6 9-6 5-3v-5h-4l-15 9-6 4h-2l2-5 3-3 8-4h2l-1-5-6 2 1-10 2-1 1 4 10-4h2v-5l-10 4-2-1 4-5 11-4 9-1 20-5 2-3h2v-2l-29 8-5 1-2-2h2l2-4 3-2h8l16-3 6-2 2-4h-9l-1 5-7 2-15 1-6 1 2-2 9-3 12-8h9l11 2 2-2-7-2-1-1h-7-3l-19 8-12 5-6 1 1-3 17-8 15-6 14-1v2l8 1 6 3 4-1-1-6 6 2 5-1 8-3h7l8 2v-3h2l1 4 8 1zm-19 4 1 11 5 1v-9l-5-3zm-23 7v2l8 6 2-1-1-4-3-1-1-2zm-7 2v4l8 3h2v-3l-7-4zm-6 5-6 5 2 1 6-4v-2zm2 3m-10 3m1 2-3 2 1 4 15-4 2-2zm-8 5-16 5-12 3-1 5 3 1 15-6 10-3 2-2zm-2 7-22 8-4 1v5l5 1 15-7 8-4 1-4zm-33 12-4 4v5l6-2 4-4-1-3zm9 16-9 7v2l5 5 12-8-2-4-2-2z" fill="#2574A4"/>
<path transform="translate(1765,1075)" d="m0 0 4 1 20 14 12 9 6 4 1 2v7l-7 25-4 16-5 15-3 3h-14l-6-2-2-9-2-43z" fill="#9B9B9A"/>
<path transform="translate(921,219)" d="m0 0 5 1 6 17 5 14 4 5 8 7 17 13 3 4 5-1 5-2-2 3 5 1 2 4-4 9-6 7-7 6-4 4-4 2h-7l-5-1-3-6 1-8-3 1 2-4 1-3-4-2-5-5v-2l-4-2-18-18-3-5-5-21-1-6v-9z" fill="#748BAF"/>
<path transform="translate(977,309)" d="m0 0h3l-2 8v2l5 1 5 3v2l15 6 3 3 4 2v2l4 2h10l8-7 2-3 6 3 42 10 1 4-12 16-11 12-2 2-9-2-28-10-13-7-12-11-9-9-8-7-9-9-1-5-2-1 8-5z" fill="#738BAF"/>
<path transform="translate(1908,1103)" d="m0 0h7l7 3 6 5 5 7 3 9 1 11v53l-3 31-4 17-5 13-4 7-4 3h-19l-7-10-2-6-3-21-4-52v-17l12-5 5-8 2-6v-16l-3-10v-4zm-3 3-4 3 2 10v16l-3 9-2 4 1 9 3 23 1 30 2 16 3 10 7 14 2 2h5l3-5 3-9 3-17 2-13 1-9v-72l-6-12-8-8-5-1z" fill="#71706F"/>
<path transform="translate(280,329)" d="m0 0h2l-1 5-6 12-2 5v5l2 4-3 7-2 9-2 2-3 1-6 15-3 9 1 7 1 5 5-12 5-5-1 7-6 17v7l4 8 3 1 3-10 6-16 4-3 5 1 5 6-1 2-4-2v-2h-5l-10 30 1 5 8 10h3l6-18 4-2 1-4-1 9-5 18v6l13 10 5 4 4-20 4-13v-8l3-2 8-22 4-1 1 4-8 19v5l17 10 3 1 5-10h1l-1 13 9 3 11 5 3 2-6 2-16-6h-3l-7 37 9 3 17 7 4-29 1-2h2l1-4v14l-3 23-3-2-6 2-1 2-19-7h-3l-1 8h-1l-1-6h-2l-1 3v-10l-23-12v5l-4-4-1-6-9-6-8-7h-1l-3 19-2-4-2 1 2-13 1-8-9-11-3-3-3 11-3-4 2-14-6-12v-2h-2l-2 12-4 1 4-20-1-10h-2l-1 5-4 16h-1l1-12 5-21 2-13 5-8 8-18v-13l6-12zm39 120-5 15-4 16v6l18 10 5 2 2-6 5-26v-7l-19-10z" fill="#226C9E"/>
<path transform="translate(644,561)" d="m0 0 3 1v16l5-5 2 3 4 2-10 4-6 7-5 15 3-3 3-5h2l-1 4-5 7-6 5-6 10-4 6-2-2-14 9-5 10v3l9-9h2l-2 4-7 7-9 6-8 6-21 12-5 5-10 6-18 8-18 6-26 5-17 1h-25l-16-1-26-6-24-9-17-9v-3l5 2 10 6 7 3h3l-2-3 2-3 3 1v3l5 5 18 7 6 2-4-10-23-6v-3l20 5-2-11h2l4 10 1 1 25 3v-8l2-4 1 12h27l2-9 3-1-1 10 23-2h7l1-4 2 3 13-3 13-4 6-6h2l-1 5 18-6 4-2 4-7 5-11-1-2 4-2 5-12h1v6l17-6 5-5 3-11 4-6 3-9 3-11 1-9h1v14l11-7 8-7 2-11 1-11zm-10 33-6 4-10 8-7 19v3l4-1 6-4 7-6 6-12 2-6v-5zm-35 46-16 8-4 4-6 12 1 3 14-8 6-5 6-11zm-44 37-10 3-6 3-1 5 13-5 6-4v-2zm-28 8-18 4-2 4v5l19-5 7-3 1-4-1-1zm-107 5 4 9 1 1 21 2v-8l-2-3-12-1zm81 0-17 1-6 1-1 9 2 1 24-3 2-6v-3zm-53 2 1 10 23 1 2-1v-10z" fill="#748BAE"/>
<path transform="translate(984,274)" d="m0 0h7l5 3 3 4 1 7-3 7-7 6-3 2h9l11 8 16 11 10 8-1 4-8 7h-10l-5-5-5-3-16-8-2-2-8-4-1-5 2-4-8 4-9 7-6 2h-5l9 14 5 12v5l-4-4-9-12-4-6-2-10-4-11-1-2v-10l4-2 1 2-1 8 2 5h12l6-3 7-8 5-4 4-6 2-7-1-3h-6l3-5z" fill="#353553"/>
<path transform="translate(420,428)" d="m0 0 1 4-4 16-11 43-5 16-4-5-5-5 4 8v5l-4 1-6-7-9-17-2-8h-2l-1 4-1-3h-2l1-9-4-1 1-2h3l-2-10 4-4 12-3 11-3h11l7-9 4-10z" fill="#1188B9"/>
<path transform="translate(1672,233)" d="m0 0h14l9 5 8 9 8 16 5 17 2 17v9l-3 19-4 14-6 9-23 2-11 2h-7l-7-8-5-10-6-20-3-26v-11l3-16 6-12 9-10 8-5zm6 2-4 2-10 15-7 14-2 7-1 11 2 17 5 16 8 20 4 8 2 2 19-1 9-1 4-3 5-16 4-20v-17l-4-16-5-16-6-10-11-10-6-2z" fill="#71706F"/>
<path transform="translate(1815,732)" d="m0 0h12l3 2 3 9v15l-4 10-4 4h-32l-9-2-3-4-1-4v-20l2-2 23-6z" fill="#173457"/>
<path transform="translate(624,530)" d="m0 0h1l1 34 8-4 1 3-7 6-3 2-3 14h-1v-10l-10 4-11 7-3 4-4 13-3 14 5-1-2 2-3 1-2 6-1-4-14 5-12 7-14 16-2 1 1-4 1-2h2l7-14 4-7 13-32 8-25 2-5 4-2 8 1 3 3 1 9 21-2 1-4 1-13h2zm-37 72m-2 1v2l-4 2-11 13v3l10-1 7-3 1-1v-13l-1-2z" fill="#1589BA"/>
<path transform="translate(364,561)" d="m0 0h1l1 34 10 3-2 2-7-1 2 23v7h-2l-1 2-11-3-17-7 5 18 2 5 4 3 14 5 5 1-4 3-12-5h-3l6 11 5 8-1 5-4-2-8-7-11-7-11-9-2-1-1-7-5-9-10-7-6-3-6-7-4-6-5-6v-2h-2v-3l2-1-3-9-1-5h4l9 8 7 5-1-12-2-14v-6l4 2 10 6 16 8v-10h1l1 11 6 2 16 6 9 3 1-31zm-61 11 1 12 4 18 8 5 14 7h2l-2-23-2-7-16-8-7-4zm30 15 1 16 2 13 5 3 20 8 5 1-2-25-1-6zm-45 5 1 6 6 14 9 9h2l1 3 6 3-2-10-4-12-12-10-5-3zm23 16 2 9 5 13 6 5 16 8-2-10-3-13-8-5-14-7zm13 30 2 5 6 9 9 8 8 5h2l-1-6-7-12-17-9z" fill="#26456C"/>
<path transform="translate(1560,392)" d="m0 0 6 1 9 7 10 10 5 10 3 12v19l-4 16-8 16-6 7-7 3-7-1-8-7-4-8-5-15-2-17-1-19v-14l4-4 8-5 4-5zm1 4-5 8-2 11v9l3 22 6 25 5 12 3 4 5-2 6-10 5-12 3-10 1-7v-13l-3-12-6-10-12-12-4-3z" fill="#71706F"/>
<path transform="translate(1813,431)" d="m0 0 5 1 6 10 12 19 8 13 13 22 8 15 2 2 2 26v12l-3 5-1 1h-7l-4-2-9-13-17-25-14-22-22-33-4-7 2-5 4-5 11-9zm-1 4v2h-2l-2 13 2 17 5 17 8 15 6 9 4 7 10 14 4 6 8 11 2 4 4 3 5-2 1-10-2-15-1-11-8-16-21-35-7-10-5-9-6-9z" fill="#71706F"/>
<path transform="translate(1738,557)" d="m0 0h32l3 5 3 13 1 14-3 6-19 7-30 7-20 3h-23l-6-4-5-10v-19l2-5 9-4 21-7 26-5zm13 2-31 4-17 3-10 4-4 3-2 6v8l4 13 3 5 2 2 5 1 26-4 19-4 15-5 8-3 2-6-1-13-3-9-3-4z" fill="#173558"/>
<path transform="translate(1705,752)" d="m0 0h13l7 14v10l-3 7-3 4-6-1-10-5-3-1h-15l-10 3-5-1-4-5v-10l3-6 4-3 18-4z" fill="#173457"/>
<path transform="translate(1756,1179)" d="m0 0 4 1 5 3 8 2h17l8-1 4 5v2l3 1 6 8 8 10 12 18 4 9v10l-6 8-7 4h-14l-13-5-9-5-10-7-13-11-6-7-4-10-2-13 1-12 3-8zm37 7-4 1h-21l-2 5v15l4 11 7 11 3 1 2 4 14 10 14 9 6 3 7-1 7-4 2-4 1-7-3-9-9-13-4-7h-2l-2-4-8-11-9-10z" fill="#71706F"/>
<path transform="translate(1765,1075)" d="m0 0 4 1 20 14 12 9 6 4 1 2v7l-7 25-4 16-5 15-3 3h-14l-6-2-2-9-2-43zm14 14-1 6-1 39v20l1 13 1 2 7-1 4-4 5-17 5-18 5-17-1-8-10-7h-2v-2l-8-6z" fill="#71706F"/>
<path transform="translate(1599,409)" d="m0 0h11l8 4 4 9 3 10 1 16 1 1v9l-6 2-7 6-9 3-7-1-1-5 2-21-4-25v-5z" fill="#173558"/>
<path transform="translate(1781,386)" d="m0 0 11 1 7 3 6 5 6 9 3 7 1 12-7 6-18 12-4 1-3-5-2-14-3-23v-12z" fill="#173558"/>
<path transform="translate(1474,372)" d="m0 0h32l6 1 3 10 4 13 6 10v2l-10 1h-32l-72-2-5-4-1-2 1-9 8-6 16-6 18-5 13-2zm-4 2-17 2-7 2-3 5 1 10 3 7 5 5 9 1h51l8-1 1-3-5-9-5-16-6-3z" fill="#71706F"/>
<path transform="translate(1949,443)" d="m0 0h2l6 8 10 7-1 7-12 24-16 24-12 16-12 13-7 8-10 10-8 7-6 4-8 1-4-4-1-8 4-8v-27l3-6 10-13 7-8 16-17 14-14 11-12 10-9zm-2 4-20 20v2l-3 1v2h-2l-4 5-7 6-7 8-13 14-7 11-3 11v11l3 17 3 8 5-2 3-3v-2l3-1v-2l4-2 3-3v-2l3-1 6-7v-2l3-1 9-11 11-15 12-19 4-6 8-17 1-7-8-8-4-5z" fill="#71706F"/>
<path transform="translate(485,221)" d="m0 0h13l25 6 21 8 9 5-1 7h-5v-2h2l-1-4 1-2-6 1-8-1 2 4-1 1h-13l-1 4h-2v-2l-6-1 3 6 1 5 20 7 6 3 2-3 3 5h-2v2l2 1-5-1-12-5-13-6-2-1 1 5 18 8-2 3-4-1-8-5-7-2-2 5-3 2-2-2 3-8h-3l-1 4-7-1-7-6h-3l2 4 3-1-1 4h-2l1 3 3 1-1 2h-3l-3-6v-3h-2v-2h-2v6l-3-1v-3l-3-1 1 6h-2l-1-5-2 1-3 9-3-1h2l-1-8-2-3 11-2 7-3 2-3v-10l1-3-2-1 21-2v-2l4 1-3 1v2l12 1h10v-3l-10-2-3-3-6-1h-7l-2-4-18-6zm19 21-9 3-1 3 8 2 1 3-6 3v3l3 2 2 4 5-2 1-3h5l1-6-4-8-4-4z" fill="#1E689B"/>
<path transform="translate(659,559)" d="m0 0h2l-1 6h229l136 1-4 1-1 2v-2l-18 1-3 1-26 1-70-1v-2h-3l-1 2-1-1h-20l-2 1-4-1-3 1-4-1h-3l-4 1-4-1h-10l-4 1h-64l-5-2-15 1h-16l-13 2h-68l-2 1 1 6-5-1-1-4 5-8z" fill="#0E88BA"/>
<path transform="translate(449,236)" d="m0 0 5 2 5 1v2h13l7 3h3l3 1-1 4-6 3-5 6-4 2-6 1-2 2h-2l-2 4-5 1 1-5-5 5-3 2-1-3-3 5-1-4 3-7-2-1-2 4-2 3-1 5-5 2 3-7 3-10-5 5-1 2h-2l1 5-5 3 2-6v-5l4-2v-3l-11-1 1-4 11-3-10-1 2-4 8 1-2-5 3-1 10 3v-2h5z" fill="#16689B"/>
<path transform="translate(246,442)" d="m0 0h1l2 10 3-7 2-2v8l-1 6v12l5 10h1l3-18 3-1v10l-2 11v8l-1 1 1 4h-1l-1 10v23l10 13 4 3v-25h1l2 9h1l1 21 5 5 13 10v-27h1v27l3-1 1 5-4-2-1 4-7-6-11-7 4 24 1 3-4 1-6-7-6-2-8-19-6-18-2-9 7 6 3 8 5 19 10 14-1-13-2-13-8-9v-2l-4-2-3-3-2-5-5-2-4-15-2-19v-33l-1-7zm4 31-1 3 1 30 4 11 3 2 2-24v-7l-6-12z" fill="#395F91"/>
<path transform="translate(939,256)" d="m0 0 5 2 10 9 12 9 3 4 5-1 5-2-2 3 5 1 2 4-4 9-6 7-7 6-4 4-4 2h-7l-5-1-3-6 1-8-3 1 2-4 10-6 4-3-6-3-6-8-6-12-1-1z" fill="#717070"/>
<path transform="translate(1534,364)" d="m0 0 8 1 7 4 6 9 1 11-3 7-8 7h-12l-6-4-4-6-2-12 1-9 3-5z" fill="#173558"/>
<path transform="translate(991,303)" d="m0 0h5l11 8 16 11 10 8-1 4-8 7h-10l-5-5-5-3-16-8-2-2-8-4-1-5 2-2v-4l6-4z" fill="#0C6599"/>
<path transform="translate(1775,975)" d="m0 0 13 2 26 1 8 1v41l-4-2-12-13-11-12-14-11-6-5z" fill="#9B9B9A"/>
<path transform="translate(1810,737)" d="m0 0h13l3 2 2 4 1 8-2 10-3 6-9 2h-10l-6-3-3-7v-15l4-4z" fill="#20397D"/>
<path transform="translate(1276,565)" d="m0 0h255l2 4-35 1h-71l-7-1-4-1h-9l-7 2h-17l-18-1-20 1-14-1-1-2-54-1z" fill="#2089B8"/>
<path transform="translate(412,675)" d="m0 0h2l4 10 1 1 25 3v-8l2-4 1 12h27l2-9 3-1-1 10h21v1l-15 2h-6v9l25-3 3-2v2l20-6h5l-1 2-15 5-26 5-17 1h-25l-16-1-26-6-24-9-17-9v-3l5 2 10 6 7 3h3l-2-3 2-3 3 1v3l5 5 18 7 6 2-4-10-23-6v-3l20 5zm8 15 4 9 1 1 21 2v-8l-2-3-12-1zm28 2 1 10 23 1 2-1v-10z" fill="#315C92"/>
<path transform="translate(1695,354)" d="m0 0h8l3 2 2 6v12l-12 3-14 2h-11l-3-5v-12l5-5 7-2z" fill="#9B9B9A"/>
<path transform="translate(899,299)" d="m0 0h13l14 4 6 4v3l-4 2 2 5 5 6 1 6-5 6-5 1h-7l-5-3-5-10 1-2h-2l-3-14-5-5z" fill="#353452"/>
<path transform="translate(921,219)" d="m0 0 5 1 6 17 4 12-1 5-15 1-4-5-3-4h-4l-2-3-2-12v-9z" fill="#19385B"/>
<path transform="translate(947,337)" d="m0 0 4 2 9 13 4 5 2 1v7l-3 5-4 2h-7l-13-5-10-6v-2l4-1 6-9 6-11z" fill="#9B9B9A"/>
<path transform="translate(1695,969)" d="m0 0h23l3 1-1 5-7 10-6 10-4 6h-4l-5-4-6-10-2-10 2-5 2-2z" fill="#173558"/>
<path transform="translate(246,442)" d="m0 0h1l2 10 3-7 2-2v8l-1 6v12l5 10h1l3-18 3-1v10l-2 11v8l-1 1 1 4h-1l-1 10v23l8 11-2 3v-2l-4-2-3-3-2-5-5-2-4-15-2-19v-33l-1-7zm4 31-1 3 1 30 4 11 3 2 2-24v-7l-6-12z" fill="#2E6397"/>
<path transform="translate(403,258)" d="m0 0 6 1-3 2-19 7h-4l1 5 6-1 16-7 1 3-20 9v4l10-4 4 2-9 5 2 4 3 2h-3l2 4-6 4-6 5-4 4-2-7-2-4h-6l-9 5-2-1 10-6 9-6 5-3v-5h-4l-15 9-6 4h-2l2-5 3-3 8-4h2l-1-5-6 2 1-10 2-1 1 4 10-4h2v-5l-3-1 4-1 2 5 9-3zm-27 13-4 4v5l6-2 4-4-1-3zm9 16-9 7v2l5 5 12-8-2-4-2-2z" fill="#768CAD"/>
<path transform="translate(519,516)" d="m0 0h1v6l16-3 3 4v6l-6 3h-9l-4-1-2 9h-1v-12h-7v8l-3 1-3-1 1-7h-17v-1h14v-3l-8 1h-9l-2-1v-8h13l19 3 1-3zm-35 5 1 4h7l-1-2z" fill="#1974A7"/>
<path transform="translate(340,465)" d="m0 0 3 1v8l-5 27 9 3 17 7 4-29 1-2h2l1-4v14l-3 23-3-2-6 2-1 2-19-7h-3l-1 8h-1l-1-6h-2l-1 3v-10l-8-4-2-3-3-1 1-3 5 1 7 4h2l6-31z" fill="#1F679A"/>
<path transform="translate(1237,564)" d="m0 0h20l19 1 54 1v3h-117l-1-3h-118v-1z" fill="#2A89B7"/>
<path transform="translate(2025,414)" d="m0 0h18l2 1-2 7-5 4-2-1-4-1-10-1-13 2 1 9h8v1h-15l-9-4-4-4v-2l16-8 9-2z" fill="#71706F"/>
<path transform="translate(1700,757)" d="m0 0h10l5 2 2 7v10l-4 2-12-1v-2l-4 1-9-1-3-3 1-5 2-5 8-4z" fill="#20397D"/>
<path transform="translate(991,303)" d="m0 0h5l11 8 16 11 7 5 1 6-5 3-7-2v-2l-5-2-3-2v-3h-3v-3l-7-1-10-6v-2h-2l-1-7z" fill="#213C7E"/>
<path transform="translate(1967,421)" d="m0 0h6l6 5 2 6-2 10-6 7h-8l-5-3-2-5 1-13z" fill="#173558"/>
<path transform="translate(659,559)" d="m0 0h2l-1 6h136v1l-25 1-15 1h-16l-13 2h-68l-2 1 1 6-5-1-1-4 5-8z" fill="#2089B9"/>
<path transform="translate(614,468)" d="m0 0h1l3 14h3l10-8 2 1-6 5v3l-7 5 3 25 1 9 1 2 6-3 4 2-8 5h-2l-1 25h-2l-1-20-16 8-10 4 1-4 24-13-1-14-3-22-12 5v-2l-3-1 13-7-2-16z" fill="#25417C"/>
<path transform="translate(485,221)" d="m0 0h13l25 6 21 8 9 5-1 7h-5v-2h2l-1-4 1-2-6 1-8-1 2 4-1 1h-13l-1 4h-2v-2l-7-2v-2l8-1h10v-3l-10-2-3-3-6-1h-7l-2-4-18-6z" fill="#1A699C"/>
<path transform="translate(1816,960)" d="m0 0 6 1 1 1v8l-3 3-8 1h-9l-9-1-12-5-3-5 1-2h16z" fill="#173558"/>
<path transform="translate(328,416)" d="m0 0 2 1-1 5-7 17v5l17 10 3 1 5-10h1l-1 13 9 3 11 5 3 2-6 2-16-6h-3l-1 5-1-3-3-1-1-6-20-10-1 5-2-3h-2v-10l3-2 8-22z" fill="#2585B4"/>
<path transform="translate(1793,397)" d="m0 0h5l8 9 2 7v6l-4 6-8 4-5-2-2-9v-14l3-6z" fill="#20397D"/>
<path transform="translate(481,221)" d="m0 0h3l-1 7 8 1 10 4 3 1 15 1 5 2v1h-13l-3-2v2h-5l-2 1v-2l-9-3-8-2-1 3h-2v-5h-5v6l-2-1-1-6h-3l1 8 1 2-6 1-6-1v-7l-1-4-6-1 1 5-8-4 3 6-1 2-4-2v-2h-5v2l4 2 2 3h-2l-1 2v-3l-4-2-6-2 4-3-1-6 6 2 5-1 8-3h7l8 2v-3h2l1 4 8 1zm-19 4 1 11 5 1v-9l-5-3z" fill="#2C74A3"/>
<path transform="translate(610,304)" d="m0 0 5 5v3l-3 1-1 5 6 11 16 20 2 1 1-2 1 8-3 7-5 9 1 5 12 22 3 5 7-11h1v5l-5 8-2 3-1-2-3-1-8-14-6-11-1-2-6 1 1-4 1-3-5-8-2-3 3-2 6 8h2l6-10-1-5-10-12-8-10-3-3-2-9-1-8z" fill="#1E3D67"/>
<path transform="translate(1775,975)" d="m0 0 13 2 26 1 8 1v41l-4-2-12-13-11-12-14-11-6-5zm25 6-3 2 1 6 6 12 4 2 2 4 5 5h3l2-3v-26l-7-2z" fill="#71706F"/>
<path transform="translate(478,679)" d="m0 0h1l-1 10h21v1l-15 2h-6v9l25-3 3-2v2l20-6h5l-1 2-15 5-26 5-17 1h-25l-16-1v-1l6-1v-1h7l2 1 1-3 2-3v6h25l-1-9-25-1v-1l26-2 2-9z" fill="#3E74A2"/>
<path transform="translate(546,239)" d="m0 0h3v6h-2v2l-5-1v3l10 2-1-4 2-7 14 7 1 3-10 1-1 4-8-1-4-1 1 5 2 1-4 1h-8l-11-4 1-5h-3l1-4h15l-1-1-7-1v-1l9-2 7 1-2-3zm-8 13 1 2 2-1z" fill="#1B6D9F"/>
<path transform="translate(1892,1117)" d="m0 0 4 4 1 3v14l-4 7-7 4-4-1-5-4v-5l6-10 7-11z" fill="#173558"/>
<path transform="translate(349,332)" d="m0 0h3v2l4 2 7 9 8 16 1 7-2 5-4-4h3l1-5-4-6-2-4-4 4-3 5 7 6-4 1-4-3v-2l-6-1-9-6-4-2-3 3h-3l2-8-3-4v-2h2l-2-4 4 2 1 3 4-1 3-5-1-6 4 2zm2 3-7 10-4 5 1 3 12 9h3l6-11v-5l-9-10z" fill="#95989D"/>
<path transform="translate(644,561)" d="m0 0 3 1v16l5-5 2 3 4 2-10 4-6 7-5 15 3-3 3-5h2l-1 4-5 7-6 5-6 10-4 6-1-3-2-1 7-7 6-12 3-11-8 5-5 4-5-1 1-8 1-9h1v14l11-7 8-7 2-11 1-11z" fill="#638AB1"/>
<path transform="translate(906,299)" d="m0 0 11 1 9 3 1 3h-2l-1 5 6 8 2 2v4l-6 4-5-1-7-10-4-12-5-6z" fill="#0B0C12"/>
<path transform="translate(1539,371)" d="m0 0 4 1 4 3 3 6v11l-6 6h-6l-4-4-3-10 1-8h2l1-3z" fill="#20397D"/>
<path transform="translate(543,673)" d="m0 0h2l-1 5 16-5h5v3l-10 7-19 9-5 1-2-2 4-1v-4l-10 1-14 3-2 8-3-1 1-7-4 1h-9v-3l16-1 1-4 2 3 13-3 13-4zm12 4-10 3-6 3-1 5 13-5 6-4v-2z" fill="#488BB3"/>
<path transform="translate(416,245)" d="m0 0 3 1v2l-2 1v3l5 1-1 3-5 2 3 1 2-2 9-1-3 3-7 3-4 1v3l3 1 2 4 4 2-4 1h-3l-2-4-2-1-2 6h5v1l-14-1 4-3 4-1v-5l-4 1v-3l3-1 2-4h-6v-2l5-2v-2l-16 5-12 2-1 3-1-3-8 5-5 1 3-5 5-3 8-2 8-1 20-5 2-3h2z" fill="#3283B1"/>
<path transform="translate(889,566)" d="m0 0h136l-4 1-1 2v-2l-18 1-3 1-26 1-70-1v-2h-3l-1 2-1-1-9-1z" fill="#0E88BA"/>
<path transform="translate(280,371)" d="m0 0h2l-2 6-4 8 1 8 3 6h2l11-21h2v6l-9 17-2 8-6 2-1-7-4-9h-2l-2 5h-3v-3l3-9-1-10 3-6 3 6 4-6z" fill="#3588B5"/>
<path transform="translate(1695,354)" d="m0 0h8l3 2 2 6v12l-12 3-14 2h-11l-3-5v-12l5-5 7-2zm2 2-19 2-3 5v11l5 3 24-4 2-1-1-13z" fill="#71706F"/>
<path transform="translate(461,427)" d="m0 0h34l5 3 3 6v15l-3 16-2 9v3l2 1-1 1 9 1v1l-15 1v-9l5-23 1-16-1-5-4-1-70-1v-1z" fill="#0D6CA0"/>
<path transform="translate(568,248)" d="m0 0 11 7 4 3v12l-9-3-9-1-7-8-3-3h2l1-4 10-1z" fill="#1189BA"/>
<path transform="translate(1610,419)" d="m0 0 6 2 1 4h2l2 15-5 18-5 1-1-1v-14l-1-9v-14z" fill="#20397D"/>
<path transform="translate(939,256)" d="m0 0 5 2 10 9 12 9v4l-7 5-6-1-7-9-6-12-1-1z" fill="#0F6699"/>
<path transform="translate(459,239)" d="m0 0h15l5 1 6-1 4 2v15l-6 4-13 3-2-1-2 9h-3l-1 2v-12l8-3 5-3 5-5 4-2 1-3-5-1h-3l-5-2-13-1z" fill="#213D7F"/>
<path transform="translate(587,559)" d="m0 0 8 1 2 5-10 2-2-1v6l-5 14-4 10-4 9-11 21-1-3 13-32 8-25 2-5z" fill="#0C6599"/>
<path transform="translate(913,220)" d="m0 0 4 1-4 2 2 9 3 10 2 5 1 3 7 2 8-3-1 5-15 1-4-5-3-4h-4l-2-3-2-12v-9z" fill="#136699"/>
<path transform="translate(1800,438)" d="m0 0 2 1-6 6h-2l-2 4-3 4 2 5 10 16 20 30 7 12 8 11 8 12 7 10 3 4v2l11 2-3 3-6-1-3-2v-2l-3-1-12-20-10-13-7-11-10-16-7-11-8-12-8-13-1-7 8-9z" fill="#343352"/>
<path transform="translate(745,810)" d="m0 0 4 4v7l3 1-2 4-3 1v-2h-5l-2 3-6 3v-2l-7 1-2-4 3-7 2-3h3v3l5-4 4-4z" fill="#183659"/>
<path transform="translate(1147,567)" d="m0 0h65l1 3-15 1h-82v-1l11-1 19-1z" fill="#0D70A5"/>
<path transform="translate(376,383)" d="m0 0h1v11l6 2 102 2 41 1 12 3 2 2v5l-3 3-1 7-2-4 1-8 1-3h-3v-2l-9-1-38-1-94-1-14-1-3-2v-8z" fill="#20397D"/>
<path transform="translate(304,407)" d="m0 0h2l-1 5-5 14 10 9 6 4-1 5-11-7-5-5-3-1-1 7-6 3 3-10 1-4-9-12 2-1v2l6 2 4 2 4-10 4-1z" fill="#3080AE"/>
<path transform="translate(374,393)" d="m0 0 4 4 14 1 94 1 38 1 9 2v2h3l-2 10-2-3-1-7-24-1-11-1-38-1-78-1-5-2z" fill="#0C6599"/>
<path transform="translate(1026,349)" d="m0 0 6 2 4 3 2 5-2 6-2 1-2 3-15-6-4-2v-2h3v-3l5-4h3v-2z" fill="#989A9B"/>
<path transform="translate(966,287)" d="m0 0h6l-1 6-3 5h-2v3l-7 6-6 1-4-4-1-3 2-6z" fill="#A2A2A1"/>
<path transform="translate(1447,414)" d="m0 0h22l-2 10-2 5-7-1-11-7-8-4v-2z" fill="#71706F"/>
<path transform="translate(1062,341)" d="m0 0h11l9 2 1 4-9 12-3 1-5-4-4-7-1-5z" fill="#12679A"/>
<path transform="translate(285,591)" d="m0 0 4 1 1 6 6 14 8 8 5 4 3 2-3-12-3-10 4-1 12 6-3 2-6-2-2-1 6 17-1 2-2-1-2 4-5-4-6-3-6-7-4-6-5-6v-2h-2v-3l2-1z" fill="#2C558A"/>
<path transform="translate(253,529)" d="m0 0 7 6 3 8 5 19 10 14v2h2l2-4 3 9-4 1-6-7-6-2-8-19-6-18z" fill="#31518A"/>
<path transform="translate(988,275)" d="m0 0h6l5 6 1 7-3 7-7 6-7 4-3 1 2-7 3-5h2l1-4h2v-9l-1-3-2-2z" fill="#0D0E14"/>
<path transform="translate(343,643)" d="m0 0 6 4 14 5 5 1-4 3-12-5h-3l6 11 5 8-1 5-4-2-8-7-11-7-11-9-2-1 1-3 6 2 7 8 14 9-5-12-3-5z" fill="#244A78"/>
<path transform="translate(519,516)" d="m0 0h1v6l16-3 3 4v6l-6 3h-9l-4-1-2 9h-1v-13l-2-1v-4h2v-5z" fill="#224081"/>
<path transform="translate(1555,399)" d="m0 0v3l-6 5-6 3-1 2v14l2 30 4 16 4 10 7 8 5 2 7-1 6-4 6-9 7-17 2-10h1l-1 12-8 19-8 9-7 3h-8l-7-4-5-7-6-18-2-15-1-15v-26l11-6z" fill="#343352"/>
<path transform="translate(2022,416)" d="m0 0h16l2 3-1 2h2l-2 4h-3l-4-1-10-1-13 2v6l-6-2 1-8 3-2z" fill="#9A9A99"/>
<path transform="translate(280,329)" d="m0 0h2l-1 5-6 12-2 5v5l2 4-3 7-2 9-2 2-3 1-3 7-1-2-2-1 8-18v-13l6-12z" fill="#286F9F"/>
<path transform="translate(614,468)" d="m0 0h1l3 14h3l10-8 2 1-6 5v3l-7 5 1 11v10l-2 1-3-16v-2l-12 5v-2l-3-1 13-7-2-16z" fill="#26456C"/>
<path transform="translate(515,252)" d="m0 0 1 4 8 2 16 6 4 2 2-3 3 5h-2v2l2 1-5-1-12-5-13-6-2-1 1 5 18 8-2 3-4-1-8-5-7-2-2 5-3 2-2-2 3-8h-2v-2h4v-4h2z" fill="#2A4A85"/>
<path transform="translate(454,223)" d="m0 0h7l2 2 1 11 4 1 1-4 3 6-6 1-6-1v-7l-1-4-6-1 1 5-8-4 3 6-1 2-4-2v-2h-5v2l4 2 2 3h-2l-1 2v-3l-4-2-6-2 4-3-1-6 6 2 5-1z" fill="#2B73A2"/>
<path transform="translate(280,487)" d="m0 0h1v22l2 3-4 1v14l-1 15h-1l-2-33-9-11-3-3-1-5h-2l1-2 7 6 7 8 3-13z" fill="#234482"/>
<path transform="translate(1763,1072)" d="m0 0 5 2-3 1 1 42 2 43 1 9 2 1-4-1-2-5-1-11-2-80z" fill="#343352"/>
<path transform="translate(412,675)" d="m0 0h2l4 10 1 1 25 3v-8l2-4 1 12 12 1v1h-11v10l-2-2-2-7-12-1h-12l-2 1-1-2-23-6v-3l20 5z" fill="#2E5087"/>
<path transform="translate(891,302)" d="m0 0h2l2 7 2 9 3 8 2 7 3 4-1 2-7-7-7-11-4-10 3-7z" fill="#9C9C9B"/>
<path transform="translate(1753,1182)" d="m0 0 1 4-1 3-1 13 3 15 4 8 8 9 10 8 14 9 11 5 6 2 13 1v1h-16l-20-9-11-8-11-9-7-9-4-9-2-12v-11z" fill="#343352"/>
<path transform="translate(371,476)" d="m0 0h1v14l-3 23-3-2-6 2-1 2-14-5 4-2v-2l5 1 10 4 4-29 1-2h2z" fill="#20689B"/>
<path transform="translate(347,445)" d="m0 0h1l-1 13 9 3 11 5 3 2-6 2-16-6h-3l-1 5-1-3-3-1-1-8-2-2 2-1 3 1 2-4z" fill="#2787B6"/>
<path transform="translate(259,384)" d="m0 0h2l-1 8-4 11 2 14 1 2h-3l-1 2-1-5h-2l-1 5-4 16h-1l1-12 5-21 2-13z" fill="#216FA0"/>
<path transform="translate(259,501)" d="m0 0h1l1 26 8 11-2 3v-2l-4-2-3-3-2-5-5-2-3-11v-6h2l4 8 2-16z" fill="#2E4C87"/>
<path transform="translate(1710,999)" d="m0 0h1l1 9 4 6 12 13 9 9 6 7 11 9 18 18h-3l-15-14-10-9-7-6-7-8-4-5-2-1v-2l-4-2-8-9-3-6z" fill="#343352"/>
<path transform="translate(267,398)" d="m0 0 1 4-7 20v7l2 5-4 1v-2h-2l-2 12-4 1 5-27 2-1v-3l5-12z" fill="#236B9D"/>
<path transform="translate(349,332)" d="m0 0h3v2l4 2 7 9 8 16 1 7-2 5-4-4h3l1-5-4-6-2-4-7 7 1-5 3-5v-5l-9-10-4 5-5 6h-3l2-10v-3l3 2z" fill="#979EA7"/>
<path transform="translate(1420,382)" d="m0 0 4 1-12 5-5 4-1 9 5 5 72 2v1h-71l-5-2-4-6v-7l2-5 12-6z" fill="#343352"/>
<path transform="translate(262,316)" d="m0 0 1 2-1 2h4l2 2-1 4-4 5-13-3-3-4 1-3 4-1 4-3z" fill="#183659"/>
<path transform="translate(283,583)" d="m0 0 4 2 8 7 7 5-1-14 4 1 4 18-1 3-7-4-12-9-5-1-2-7z" fill="#24456C"/>
<path transform="translate(299,565)" d="m0 0 4 2 10 6 16 8v-10h1l1 10-2 2-7-1-19-10 1 5v9l-3-3-2-12z" fill="#1B4169"/>
<path transform="translate(364,561)" d="m0 0h1l1 34 10 3-2 2-8-1v19l-2-3-1-18-3-1 2-2 1-32z" fill="#24436D"/>
<path transform="translate(1642,277)" d="m0 0h1l3 31 4 16 5 15 7 10 2 2h13v1l-7 2h-6l-7-6-6-12-6-18-3-20z" fill="#343352"/>
<path transform="translate(913,222)" d="m0 0 2 1v2h2l3 10 2 7h3l2 5 7 3-2 2-6 1-5-3-3-5-2-5-3-13-1-4z" fill="#20397D"/>
<path transform="translate(1774,836)" d="m0 0h1v22l-1 28v61l2 5 7 2 9 2v1l-11-1-7-2-2-4v-69z" fill="#343352"/>
<path transform="translate(1e3 567)" d="m0 0h25v2h14v1l-12 1h-54v-1l26-2z" fill="#0E72A7"/>
<path transform="translate(740,567)" d="m0 0h19l10 2v1l-20 1h-49v-1l5-1h22z" fill="#0D70A5"/>
<path transform="translate(973,307)" d="m0 0h2l-1 5-12 9-3 1h-10l-2-6 4-2 5 1 7-1 5-3 1-2z" fill="#0D0E14"/>
<path transform="translate(1886,506)" d="m0 0v3l-10 13-1 3v27l-4 8 1 8 3 3 10-1-3 3h-8l-5-4-1-2v-7l4-7 1-9-1-9v-11l6-9z" fill="#343352"/>
<path transform="translate(610,304)" d="m0 0 5 5v3l-3 1-1 5 6 11 8 10 6 8-2 3-10-13-5-6-3-3-2-9-1-8z" fill="#2F558C"/>
<path transform="translate(621,411)" d="m0 0h2l5 12v2l4 1-1 5 3 11h-3l-3-8-4 1-9 7v-3l10-10-1-6-4-11z" fill="#304B7D"/>
<path transform="translate(478,679)" d="m0 0h1l-1 10h21v1l-15 2h-6l-1 9-2-1v-8l-7 1-20-1v-1l26-2 2-9z" fill="#2A6D9D"/>
<path transform="translate(543,673)" d="m0 0h2l-1 5 16-5h5v3l-10 7-13 6-3-2 12-5 4-3h2v-2l-12 4-5 2-1-6z" fill="#678BB0"/>
<path transform="translate(412,250)" d="m0 0 1 4-2-1-16 5-12 2-1 3-1-3-8 5-5 1 3-5 5-3 8-2 8-1z" fill="#477BA4"/>
<path transform="translate(246,442)" d="m0 0h1l2 10 3-7 2-2v8l-2 19-1 2h-3l-2-19z" fill="#29528D"/>
<path transform="translate(553,240)" d="m0 0 14 7 1 3-10 1-1 4h-5v-6l-1-2z" fill="#1174A8"/>
<path transform="translate(828,565)" d="m0 0h61v2l-11 1-2 1-4-1-3 1-4-1h-3l-4 1-4-1-10-1-16-1z" fill="#3E89B5"/>
<path transform="translate(346,308)" d="m0 0h2l-2 4-6 13 1 9-3-3-5 2-3 3-3-1 2-4 9-11 3-7z" fill="#7B8EAB"/>
<path transform="translate(314,626)" d="m0 0 4 2 4 5 17 9 2-1-1 4-7-2-9-5 4 7-1 3-4-3-4-9-5-5-1-3z" fill="#274B80"/>
<path transform="translate(587,559)" d="m0 0 8 1 2 5-10 2-2-1v6l-5 14-4 10-2 1 1-5 7-22 3-7z" fill="#0E72A7"/>
<path transform="translate(253,529)" d="m0 0 7 6 3 8 2 8v7l-4-2-6-18z" fill="#2E518C"/>
<path transform="translate(526,692)" d="m0 0h5l-1 2-15 5-21 4h-14l3-2 20-3 3-2v2z" fill="#316E9E"/>
<path transform="translate(1638,479)" d="m0 0 4 4 8 15 5 17 5 25 1 10-2-3-5-24-3-11-2-9-6-14-5-7z" fill="#343352"/>
<path transform="translate(491,485)" d="m0 0 2 3 3 7v7l-3 6h-4l-2-6z" fill="#1677AA"/>
<path transform="translate(629,377)" d="m0 0 3 3 12 23h2l6-10h1v5l-5 8-2 3-1-2-3-1-8-14-6-11z" fill="#344F84"/>
<path transform="translate(415,242)" d="m0 0h2l-1 3-29 8-5 1-2-2h2l2-4 3-2h8l16-3z" fill="#3885B0"/>
<path transform="translate(401,228)" d="m0 0h6l-4 3-4 1v2l-20 8-4 2h-4l1-3 17-8z" fill="#2573A3"/>
<path transform="translate(498,431)" d="m0 0 3 3v16l-3 17-3 13 4 1 9 1v1l-15 1v-9l5-23 1-16z" fill="#0C6599"/>
<path transform="translate(324,646)" d="m0 0 6 2 7 8 12 8h4l1 4h2l1 6-7-6-14-9-11-9-2-1z" fill="#355987"/>
<path transform="translate(865,567)" d="m0 0 5 1 3-1 4 1 5-1h16 2 3v2l4-1v2h-47l1-2z" fill="#0D70A5"/>
<path transform="translate(316,450)" d="m0 0h1v7l-5 19-1-2-3 3-1-2 4-17 3-7z" fill="#216E9F"/>
<path transform="translate(1883,1188)" d="m0 0h1l4 46 2 12 4 9 4 7-4-2-7-14-4-44z" fill="#343352"/>
<path transform="translate(309,603)" d="m0 0 13 6-3 2-6-2-2-1 6 17-1 2-3-1-7-22z" fill="#284C87"/>
<path transform="translate(1440,413)" d="m0 0h29v1l-30 1v2l4 1 15 9-3 1-22-11-1-3z" fill="#343352"/>
<path transform="translate(404,233)" d="m0 0h9v1l-7 1-2 2 2 1v4l-4 2-15 1-6 1 2-2 9-3 9-6z" fill="#748BAE"/>
<path transform="translate(512,400)" d="m0 0h12l9 2v2h3l-2 10-2-3-1-7-24-1-10-1v-1z" fill="#0D6B9F"/>
<path transform="translate(1407,567)" d="m0 0h12l1 1 10 2v1h-42l-1-2h15z" fill="#0E72A7"/>
<path transform="translate(394,308)" d="m0 0 1 3-2 6-1 8-2 7-5 17-1 3h-2l4-20 3-8 1-11z" fill="#7A8FB0"/>
<path transform="translate(509,683)" d="m0 0 2 3 9-1 3 2-14 3-2 8-3-1 1-7-4 1h-9v-3l16-1z" fill="#6B8BAF"/>
<path transform="translate(252,469)" d="m0 0 2 2 1 4-3 1h-2l1 34-2 2-2-19v-14l1-7h3z" fill="#4274A0"/>
<path transform="translate(445,677)" d="m0 0h1l1 12 12 1v1h-11v10l-2-2-2-7-16-2 1-2 15 1v-8z" fill="#31518B"/>
<path transform="translate(375,516)" d="m0 0h7l16 4-2 4-14-2-7-3z" fill="#274A88"/>
<path transform="translate(517,256)" d="m0 0 13 4 10 4 4 2 2-3 3 5h-2v2l2 1-5-1-12-5-13-6-2-1z" fill="#3B5E93"/>
<path transform="translate(298,536)" d="m0 0h1v27l3-1 1 5-4-2-1 4-7-6-7-5v-2h5l9 7z" fill="#3F5E87"/>
<path transform="translate(410,263)" d="m0 0 5 2 1-2v3l3 1 2 4 4 2-4 1h-3l-2-4-2-1-2 6h5v1l-14-1 4-3 4-1v-5l-4 1v-3z" fill="#6686AD"/>
<path transform="translate(1330,567)" d="m0 0 1 2h25l-4 2h-42l-6-1v-1l24-1 2 1z" fill="#0E72A7"/>
<path transform="translate(281,409)" d="m0 0 5 1 5 6-1 2-4-2v-2h-5l-4 12-4-1 3-10 3-5z" fill="#2F709F"/>
<path transform="translate(413,455)" d="m0 0 1 4-8 32-5 16-2-2 1-5 8-27z" fill="#0C679B"/>
<path transform="translate(1675,917)" d="m0 0h1l6 38 3 9 4 2-6 1-2-3-4-24-2-15z" fill="#343352"/>
<path transform="translate(1966,457)" d="m0 0h2v8l-4 9-10 18-6 9-5 5 2-5 10-15 11-23z" fill="#343352"/>
<path transform="translate(536,251)" d="m0 0 3 1 2 1h4l1 5 2 1-4 1h-8l-3-1-1-5 4-1z" fill="#2387B7"/>
<path transform="translate(416,226)" d="m0 0h2v2l8 1 6 3-1 5-3-2-2-1v-1l-7-2-1-1h-7-3l-6 3-3-1 6-3-1-2z" fill="#468AB4"/>
<path transform="translate(300,532)" d="m0 0 2 4v26l-3 1v-29z" fill="#1D3D7F"/>
<path transform="translate(349,506)" d="m0 0 5 1 10 4 2-4 3 1v5l-3-2-6 2-1 2-14-5 4-2z" fill="#196D9F"/>
<path transform="translate(349,332)" d="m0 0h3v2l3 1-2 2-2-1-6 9-4 2-1-4 2-3-1-6 4 2z" fill="#7A8EAB"/>
<path transform="translate(952,327)" d="m0 0 5 5 6 12-1 4-4-5v-2l-4-2-2-4z" fill="#111218"/>
<path transform="translate(364,677)" d="m0 0 5 2 10 6 7 3h3l-2-3 2-3 3 1v3l1 3-2 2-8-1-19-10z" fill="#315B8C"/>
<path transform="translate(330,547)" d="m0 0 1 4 1 31-2-2-2-4v-25z" fill="#39518B"/>
<path transform="translate(293,378)" d="m0 0h2v6l-8 16-4-1 2-6z" fill="#6887AD"/>
<path transform="translate(328,416)" d="m0 0 2 1-1 5-6 15h-3l2-9 1-6 2-5z" fill="#29709F"/>
<path transform="translate(302,429)" d="m0 0 8 6 6 4-1 5-11-7-5-6z" fill="#6E89AD"/>
<path transform="translate(1835,459)" d="m0 0 5 5 6 10 5 9 9 15 2 5-1 3-10-19-9-15-7-11z" fill="#343352"/>
<path transform="translate(2e3 418)" d="m0 0 3 1-11 6h-2l2 5 9 3 2 1 11 1v1h-12l-7-2-7-5-2-4 4-3z" fill="#343352"/>
<path transform="translate(1022,354)" d="m0 0 5 1 5 4v4h-6l-8-3 2-4h2z" fill="#FEFEFE"/>
<path transform="translate(630,348)" d="m0 0 5 2 1-2 1 8-3 7-5 9-1-2-3-1 4-4 4-7-1-5-2-2z" fill="#1D417A"/>
<path transform="translate(371,276)" d="m0 0h2l1 3 2 1-4 4-11 7-5 2 2-5 3-3 8-4h2z" fill="#7A8DAC"/>
<path transform="translate(366,599)" d="m0 0h1l2 23v7h-2l-1 2-8-2 3-2 5 1-1-10z" fill="#284E7D"/>
<path transform="translate(264,460)" d="m0 0h1v10l-3 15-2 1-1-5 3-20z" fill="#2B4B88"/>
<path transform="translate(304,407)" d="m0 0h2l-1 5-5 13-5-2-1-2 2-1 4-10 4-1z" fill="#6689AF"/>
<path transform="translate(525,525)" d="m0 0 4 1 6 2h3l1-3-1 5-5 2h-9l-3-2 2-4z" fill="#156A9C"/>
<path transform="translate(370,243)" d="m0 0 3 2-7 5-6 7-4 1-1-4-2-1 10-5 5-3h2z" fill="#6989AE"/>
<path transform="translate(340,586)" d="m0 0 22 7v2l-4 1-18-6z" fill="#274881"/>
<path transform="translate(1632,424)" d="m0 0h1l1 5v29l-1 12 5 7-1 2-4-4-2-4v-10l1-7z" fill="#343352"/>
<path transform="translate(267,398)" d="m0 0 1 4-6 17-5-2 1-2 5-12z" fill="#2A79A8"/>
<path transform="translate(427,215)" d="m0 0h13l6 1h20v1l-18 1h-21l-2-2z" fill="#163A61"/>
<path transform="translate(259,384)" d="m0 0h2l-1 8-4 11h-2l-1-9 3-6z" fill="#2E5D93"/>
<path transform="translate(1942,506)" d="m0 0 1 3-8 11-9 11-12 13v-3l13-14 13-18z" fill="#343352"/>
<path transform="translate(637,353)" d="m0 0 4 4 3 8 3 5 1 6-4-4-6-11-2-1z" fill="#15699C"/>
<path transform="translate(393,292)" d="m0 0 3 1-5 4-7 6-4 4-2-7-2-4 3 1 2 3z" fill="#768CAE"/>
<path transform="translate(604,301)" d="m0 0 8 1 3 3 4 9-5 4h-2l-1-5 4-1-3-6h-3l-4-2-2 1z" fill="#0C6599"/>
<path transform="translate(1860,1076)" d="m0 0 3 2v2l4 2 9 9 7 9 3 3-1 2-12-12-9-11-4-4z" fill="#343352"/>
<path transform="translate(339,619)" d="m0 0 6 1 16 6v2h-6l-15-6z" fill="#233D61"/>
<path transform="translate(613,532)" d="m0 0 2 1 1 2-17 9-4 1 1-4z" fill="#35507D"/>
<path transform="translate(648,376)" d="m0 0 5 2 3 9 1 8-4 1-1-9-4-9z" fill="#126499"/>
<path transform="translate(364,561)" d="m0 0h1l1 33-3-2v-30z" fill="#1C3E7D"/>
<path transform="translate(1672,356)" d="m0 0 3 1-5 3-1 2v12l2 4 10 1v1h-12l-3-6v-14l3-3z" fill="#343352"/>
<path transform="translate(283,583)" d="m0 0 4 2 8 7 2 2-2 2-6-4-5-1-2-7z" fill="#294A71"/>
<path transform="translate(260,488)" d="m0 0 5 3 9 10 3 6-4-1-10-11-1-5h-2z" fill="#274371"/>
<path transform="translate(412,250)" d="m0 0 1 4-2-1-16 5-8 1v-2l12-4z" fill="#4279A5"/>
<path transform="translate(587,559)" d="m0 0 8 1 2 5-10 2-3-1 2-4z" fill="#1070A5"/>
<path transform="translate(533,680)" d="m0 0h4l-3 10-1-4h-13l1-2z" fill="#648AB1"/>
<path transform="translate(392,689)" d="m0 0 5 2 13 5 1 2-9-1-15-6 4-1z" fill="#2C4C80"/>
<path transform="translate(559,626)" d="m0 0 1 2-4 8-3 7-7 7-1-3 2-3h2l7-14z" fill="#186499"/>
<path transform="translate(334,509)" d="m0 0h1v16l-2 4-2-7v-9l1-3z" fill="#213F79"/>
<path transform="translate(844,567)" d="m0 0h13l2 3h-30v-1z" fill="#0E72A7"/>
<path transform="translate(628,304)" d="m0 0 3 1 10 15-1 3-2-5-4-1-4-6v-4h-2z" fill="#1E5B92"/>
<path transform="translate(461,224)" d="m0 0 2 1 1 11 4 1 1-4 3 6-6 1-6-1v-11z" fill="#2D72A1"/>
<path transform="translate(469,222)" d="m0 0h2l1 4 8 2-4 4-1 4-2-7h-3l-2 4-2-6-3-1v-1h6z" fill="#3C6699"/>
<path transform="translate(543,191)" d="m0 0h1v9l-1 2h-2l1 3-2 5-2-2v-7l3-7z" fill="#173559"/>
<path transform="translate(546,239)" d="m0 0h3v6h-2v2l-5-1-1 3-3-3-7-1v-1l9-2 7 1-2-3z" fill="#2978A8"/>
<path transform="translate(406,234)" d="m0 0h13l-2 3h-7l-1 5h-5l2-4-3-1z" fill="#3889B6"/>
<path transform="translate(285,397)" d="m0 0 1 4-2 8-6 2v-8l4-2 1-2h2z" fill="#338AB6"/>
<path transform="translate(521,241)" d="m0 0h9v3h-7l-1 4h-2v-2l-7-2v-2z" fill="#156A9C"/>
<path transform="translate(533,401)" d="m0 0 6 2 1 1v5l-3 3-1 7-2-4 1-8 1-3h-3z" fill="#243E7F"/>
<path transform="translate(435,225)" d="m0 0 6 2-2 5v2l4 2 2 3h-2l-1 2v-3l-4-2-6-2 4-3z" fill="#2F7EAC"/>
<path transform="translate(957,271)" d="m0 0 4 1 6 5-1 3-6-1-3-2z" fill="#284281"/>
<path transform="translate(503,248)" d="m0 0 10 6-3 3h-3v2l-6 1v-3l5-1-3-6z" fill="#376F9F"/>
<path transform="translate(624,530)" d="m0 0h1v28l-1 8h-2v-13h2z" fill="#1F6E9F"/>
<path transform="translate(319,492)" d="m0 0 5 1 5 3 2 5-6-1-4-4-3-1z" fill="#264987"/>
<path transform="translate(1458,417)" d="m0 0h5l2 4-1 5h-3l-1-2-3-1-1-4z" fill="#9B9B9A"/>
<path transform="translate(362,370)" d="m0 0 4 2 4 3v10l-2-3v-3h-5l-1-2 1-4z" fill="#8391A7"/>
<path transform="translate(580,560)" d="m0 0 3 2-3 10-7 21-1-3 8-28z" fill="#213B7E"/>
<path transform="translate(274,390)" d="m0 0h2l4 9h3l-1 3-5 2-4-9-2-1v-2l3-1z" fill="#6F8BB0"/>
<path transform="translate(513,450)" d="m0 0h1l1 9h-1l-1 19h-1v-14h-2v-7z" fill="#2372A3"/>
<path transform="translate(481,221)" d="m0 0h3l-1 7 3 1h-3v2l2 1-2 3h-2v-5l-4-1-2-2h5z" fill="#497CA7"/>
<path transform="translate(346,308)" d="m0 0h2l-8 16-3-1 3-9z" fill="#8291A7"/>
<path transform="translate(544,259)" d="m0 0 9 1 8 4v2l-9-2-8-3z" fill="#305991"/>
<path transform="translate(483,525)" d="m0 0h19v3l-14 1-4 1z" fill="#233C7F"/>
<path transform="translate(491,485)" d="m0 0 2 3 1 6-3 5-2 5h-2l3-14z" fill="#10689C"/>
<path transform="translate(352,365)" d="m0 0 3 4-6 10-3-3 2-5z" fill="#9499A0"/>
<path transform="translate(644,561)" d="m0 0 3 1v9l-2 5h-2v-13z" fill="#2F81AE"/>
<path transform="translate(614,468)" d="m0 0h1l3 16h-2l-1 2-3-13z" fill="#36588F"/>
<path transform="translate(280,329)" d="m0 0h2l-1 5-6 12-3-2 2-5z" fill="#487BA5"/>
<path transform="translate(642,324)" d="m0 0 4 4 8 13-1 3-5-6-6-11z" fill="#2A4B80"/>
<path transform="translate(351,660)" d="m0 0h3l6 10-1 5h-2l-1-7h-2l-1-4h-2l-1-3z" fill="#2D4983"/>
<path transform="translate(347,647)" d="m0 0 10 3 11 3-4 3-12-5-5-1z" fill="#315077"/>
<path transform="translate(340,503)" d="m0 0 7 1 2 1 1 4h-8l-3-3z" fill="#244887"/>
<path transform="translate(572,599)" d="m0 0 1 3-10 21-3 3 1-5 2-5h2l2-6 4-9z" fill="#0D6EA3"/>
<path transform="translate(543,673)" d="m0 0h2l-1 5 6-1v2l-10 4-1-6z" fill="#658BB0"/>
<path transform="translate(995,566)" d="m0 0h30l-4 1-1 2v-2l-18 1-8 1z" fill="#0F89BB"/>
<path transform="translate(631,521)" d="m0 0 4 2-8 5h-2l-1 3-3-2 2-3 1-4 1 2z" fill="#2C4C72"/>
<path transform="translate(265,370)" d="m0 0 2 4 1 3-4 4-2 5-1-2-2-1z" fill="#3D7CA7"/>
<path transform="translate(271,372)" d="m0 0 4 8-2 3h-2l-1 4-2-9z" fill="#708AB0"/>
<path transform="translate(474,692)" d="m0 0h1l1 8 7 1v1l6 1v1l-15 1-2-3h2z" fill="#437AA6"/>
<path transform="translate(459,690)" d="m0 0h15l-1 3-25-1v-1z" fill="#1A6FA1"/>
<path transform="translate(610,304)" d="m0 0 5 5v3l-3 1-1 4-2-3v-9z" fill="#1C4384"/>
<path transform="translate(382,352)" d="m0 0h1v7l-2 9-4 1 4-16z" fill="#8997AE"/>
<path transform="translate(505,235)" d="m0 0h14l5 2v1h-13l-3-2v2h-3z" fill="#407FAB"/>
<path transform="translate(310,613)" d="m0 0 3 1 4 11-1 2-3-1-3-9z" fill="#2C4E8A"/>
<path transform="translate(340,465)" d="m0 0 3 1v8l-1 5-2-4-2-1 1-8z" fill="#1D6C9E"/>
<path transform="translate(513,456)" d="m0 0 2 3 1 14-3 3z" fill="#264383"/>
<path transform="translate(652,393)" d="m0 0h1v5l-5 8-2 3-1-2-3-2 2-2h2z" fill="#2E5585"/>
<path transform="translate(415,242)" d="m0 0h2l-1 3-11 3-10-1v-1l16-3z" fill="#608AB2"/>
<path transform="translate(382,236)" d="m0 0 1 2 3 1-11 5h-4l1-3z" fill="#2F7DAC"/>
<path transform="translate(319,610)" d="m0 0 7 1 6 2 1 2h-2v2l-7-2-5-3z" fill="#294E79"/>
<path transform="translate(378,368)" d="m0 0h2l-1 7-3 13-3 1 3-13 1-7z" fill="#798DAC"/>
<path transform="translate(428,234)" d="m0 0 2 1v2l2 1-1 5 2 1-2 1-5-2 2-4-3-1-1-3z" fill="#2489B8"/>
<path transform="translate(440,228)" d="m0 0h6l3 6-1 2-4-2v-2h-6z" fill="#2974A3"/>
<path transform="translate(1773,973)" d="m0 0 8 1 7 2v1l-10-1-3-1 5 5 2 3-4-2-5-5z" fill="#343352"/>
<path transform="translate(404,487)" d="m0 0h1v7l-4 13-2-2 1-5z" fill="#0D6EA2"/>
<path transform="translate(494,475)" d="m0 0h1v5l4 1 9 1v1l-15 1v-8z" fill="#1C6B9C"/>
<path transform="translate(485,221)" d="m0 0h13l3 2-2 2h-6l-8-3z" fill="#3C7BA8"/>
<path transform="translate(921,219)" d="m0 0 5 1 3 9-5-2-3-5z" fill="#204377"/>
<path transform="translate(378,206)" d="m0 0h1l2 7 1 3h5v-2h3v2l3 1h-15z" fill="#173659"/>
<path transform="translate(281,574)" d="m0 0 2 1 2 8-4 1-4-4 1-3 2 1z" fill="#355084"/>
<path transform="translate(546,524)" d="m0 0 4 1v6h-5l-2-4z" fill="#36578F"/>
<path transform="translate(522,266)" d="m0 0 10 3 4 3-2 2-4-1-8-5z" fill="#335B8F"/>
<path transform="translate(416,226)" d="m0 0h2v3l-7 1h-3l-6 3-3-1 6-3-1-2z" fill="#788DAD"/>
<path transform="translate(629,614)" d="m0 0 2 1-7 12-2 1v-3l-2-1 7-7z" fill="#5C82AA"/>
<path transform="translate(624,430)" d="m0 0 3 1-4 5-9 6 2-4 5-5z" fill="#274A6F"/>
<path transform="translate(586,560)" d="m0 0v3l-5 12h-2l2-9 2-5z" fill="#0E6699"/>
<path transform="translate(376,383)" d="m0 0h1v11l6 2 9 1v1h-14l-3-2v-8z" fill="#1C4182"/>
<path transform="translate(554,680)" d="m0 0h3v2l-15 7-3-2 12-5z" fill="#518AB1"/>
<path transform="translate(593,654)" d="m0 0h2l-1 3-12 8-3-1 10-7z" fill="#5085AE"/>
<path transform="translate(280,561)" d="m0 0h1l1 13-2 4-2-1v-11h2z" fill="#3C76A2"/>
<path transform="translate(506,528)" d="m0 0h3l1 2v6l-3 1-3-1 1-4z" fill="#185992"/>
<path transform="translate(467,420)" d="m0 0h5l1 1v5h-6l-1-4z" fill="#738BB0"/>
<path transform="translate(250,415)" d="m0 0h1l-1 9-3 13h-1l1-12 2-9z" fill="#426899"/>
<path transform="translate(412,268)" d="m0 0h1l-1 7h5v1l-14-1 4-3 4-1z" fill="#2E548D"/>
<path transform="translate(301,583)" d="m0 0 4 1 1 9-1 2v3h-2z" fill="#36588C"/>
<path transform="translate(277,552)" d="m0 0h3v14h-2l-1-3z" fill="#203B6F"/>
<path transform="translate(293,378)" d="m0 0h2v6l-2 4-4 1 1-5z" fill="#4C7CA6"/>
<path transform="translate(280,371)" d="m0 0h2l-2 6-5 5-1-2 4-8z" fill="#2872A2"/>
<path transform="translate(953,339)" d="m0 0 5 2 4 6 2-1 1 8-4-4-8-10z" fill="#363551"/>
<path transform="translate(213,806)" d="m0 0v3l-3 1v2l-8 5h-2l2-4z" fill="#173558"/>
<path transform="translate(621,506)" d="m0 0h1l1 12-3 4-1-12z" fill="#36578E"/>
<path transform="translate(329,451)" d="m0 0 7 1 2 1 2 5-5-1-3-1z" fill="#22689B"/>
<path transform="translate(526,692)" d="m0 0h5l-1 2-9 3h-5v-2z" fill="#30699B"/>
<path transform="translate(557,517)" d="m0 0h1v12l-4 4-1-2v-7l2 1v2h2z" fill="#2F558E"/>
<path transform="translate(369,513)" d="m0 0 8 2-2 1v3l2 1-7-1-2-2h2z" fill="#1D699C"/>
<path transform="translate(509,478)" d="m0 0 2 1 2 3h-15l1-2z" fill="#204081"/>
<path transform="translate(284,414)" d="m0 0h2v2l6 2 2 3-3 3-7-9z" fill="#6F89AD"/>
<path transform="translate(266,368)" d="m0 0 4 1 1 5-3 4-2-4z" fill="#0F6EA1"/>
<path transform="translate(618,360)" d="m0 0 4 4 3 5-2 4-5-8-2-3z" fill="#37558A"/>
<path transform="translate(1804,1191)" d="m0 0h2v2l3 1 7 10-1 2-10-12z" fill="#343352"/>
<path transform="translate(302,572)" d="m0 0h1l1 5v9l-3-3-1-8h2z" fill="#214875"/>
<path transform="translate(282,409)" d="m0 0 4 1 5 6-1 2-4-2v-2h-3l-2-4z" fill="#2B709F"/>
<path transform="translate(604,301)" d="m0 0 8 1 3 3 1 5-6-5h-3-3l-1-3z" fill="#216699"/>
<path transform="translate(483,229)" d="m0 0h8l4 5-10-2-2-1z" fill="#2A528D"/>
<path transform="translate(401,228)" d="m0 0h6l-4 3-4 1v2l-7 2 1-3 5-2v-2z" fill="#2588B6"/>
<path transform="translate(425,700)" d="m0 0h8l5 2v1h-11l-3-2z" fill="#274D88"/>
<path transform="translate(610,489)" d="m0 0 2 1-1 4-7 3v-2l-3-1z" fill="#324B76"/>
<path transform="translate(549,239)" d="m0 0 4 1-1 7h-5v-2h2l-1-4z" fill="#0F689B"/>
<path transform="translate(454,223)" d="m0 0h7v5l-8-1z" fill="#2970A0"/>
<path transform="translate(1844,1056)" d="m0 0 5 5 8 10-1 2-11-13z" fill="#343352"/>
<path transform="translate(312,605)" d="m0 0 6 2 4 3-5 1-6-2-1-2h2z" fill="#385A8E"/>
<path transform="translate(394,308)" d="m0 0 1 3-2 6-1 8h-1l-1-12z" fill="#276F9C"/>
<path transform="translate(629,431)" d="m0 0h2l3 11h-3l-2-5z" fill="#284B77"/>
<path transform="translate(637,393)" d="m0 0h2l4 8-1 4-6-10z" fill="#234472"/>
<path transform="translate(376,296)" d="m0 0 3 1 2 3 3 1-2 5-2 1-2-7z" fill="#8994A3"/>
<path transform="translate(706,298)" d="m0 0h2v2l-5 4-2 4-3-2 2-4z" fill="#173558"/>
<path transform="translate(620,585)" d="m0 0h1v14l2 1-5 1z" fill="#6E8EAC"/>
<path transform="translate(340,586)" d="m0 0 10 3-3 3-7-2z" fill="#2E4F8A"/>
<path transform="translate(329,571)" d="m0 0h1l1 10-2 2h-5l-1-4 6 2z" fill="#163A61"/>
<path transform="translate(493,263)" d="m0 0h2l-1 4h-2l1 3 3 1-1 2h-3l-3-6v-2z" fill="#356599"/>
<path transform="translate(415,266)" d="m0 0 4 1 2 4 4 2-4 1h-3z" fill="#33699B"/>
<path transform="translate(305,621)" d="m0 0 8 5 1 2-2 2-5-4-5-2 3-1z" fill="#415D8A"/>
<path transform="translate(260,488)" d="m0 0 5 3 3 3-2 4-3-3-1-5h-2z" fill="#2D4A79"/>
<path transform="translate(326,447)" d="m0 0 6 3-1 2 1 3-5-2-2-1z" fill="#3289B7"/>
<path transform="translate(302,319)" d="m0 0 1 4-5 5h-2l2-6z" fill="#2E719F"/>
<path transform="translate(543,254)" d="m0 0 3 2v2l2 1-6 1-5-1v-2h6z" fill="#146EA1"/>
<path transform="translate(461,224)" d="m0 0 2 1 1 12-4 2v-11z" fill="#3C7BA8"/>
<path transform="translate(526,682)" d="m0 0h5v2l-4 2h-7l1-2z" fill="#3089B7"/>
<path transform="translate(538,678)" d="m0 0 3 1-2 6-4 2 1-5z" fill="#1D89B9"/>
<path transform="translate(352,664)" d="m0 0 2 4h2l1 6-7-6v-2h2z" fill="#156899"/>
<path transform="translate(335,616)" d="m0 0 6 2-2 1-1 3h-2l-1 2-2-6h2z" fill="#2E5076"/>
<path transform="translate(633,560)" d="m0 0 2 3-4 4h-6l2-2h3l1-4z" fill="#2370A0"/>
<path transform="translate(300,551)" d="m0 0 2 4v7l-3 1v-8z" fill="#1B3669"/>
<path transform="translate(260,549)" d="m0 0h2l3 4v5l-4-2z" fill="#203C68"/>
<path transform="translate(495,522)" d="m0 0 7 2v1l-8 1h-9v-1h7v-2z" fill="#146EA1"/>
<path transform="translate(631,362)" d="m0 0 2 1-2 5-3 4v-2l-3-1 4-4z" fill="#2F517E"/>
<path transform="translate(347,266)" d="m0 0 2 1v7l-2 1-3-1 2-7z" fill="#8594AB"/>
<path transform="translate(508,260)" d="m0 0h5l-4 1-2 6-7-1 2-2 5-2z" fill="#3F72A0"/>
<path transform="translate(412,250)" d="m0 0 1 4-2-1-8 2-4-2z" fill="#6988AD"/>
<path transform="translate(314,626)" d="m0 0 4 2 2 7-7-5z" fill="#183965"/>
<path transform="translate(635,605)" d="m0 0h4v2l-6 5-1 2h-2l2-6z" fill="#3589B6"/>
<path transform="translate(659,559)" d="m0 0h2l-1 6h8v1l-10 1-2 1z" fill="#5685AD"/>
<path transform="translate(600,539)" d="m0 0 4 1-3 3-6 2 1-4z" fill="#25466E"/>
<path transform="translate(304,407)" d="m0 0h2l-1 5-2 5h-2v-7l3-1z" fill="#3574A1"/>
<path transform="translate(296,305)" d="m0 0h2l1 4-3 1-2 4-1-4z" fill="#196A9A"/>
<path transform="translate(570,651)" d="m0 0 4 1-12 4-4-1z" fill="#788DAD"/>
<path transform="translate(425,223)" d="m0 0h8v1l-9 2h-5l2-2z" fill="#628AAE"/>
<path transform="translate(586,625)" d="m0 0h1l-1 9-2 2z" fill="#909BAB"/>
<path transform="translate(520,249)" d="m0 0 5 5-3 1-3-3z" fill="#738BB0"/>
<path transform="translate(377,253)" d="m0 0h3v2l-5 2z" fill="#8190A8"/>
<path transform="translate(490,235)" d="m0 0 2 2-5 2 1-3z" fill="#4480AB"/>
<path transform="translate(653,580)" d="m0 0 1 2-2 4-1-4z" fill="#738BB0"/>
<path transform="translate(422,264)" d="m0 0h4v3l-4-1z" fill="#3F78A4"/>
<path transform="translate(599,613)" d="m0 0 3 1-4 2-3-1z" fill="#7B8EAB"/>
<path transform="translate(454,232)" d="m0 0 3 1-1 3z" fill="#477FAB"/>
<path transform="translate(381,308)" d="m0 0 4 2h-3z" fill="#C5C9CF"/>
<path transform="translate(547,658)" d="m0 0 3 1-4 1z" fill="#8B94A2"/>
<path transform="translate(632,567)" d="m0 0 3 3-3-1z" fill="#738BB0"/>
<path transform="translate(476,236)" d="m0 0 4 1-3 1z" fill="#3574A2"/>
<path transform="translate(635,570)" d="m0 0 3 1h-3z" fill="#8793A5"/>
<path transform="translate(491,225)" d="m0 0 1 4z" fill="#418AB5"/>
<path transform="translate(548,654)" d="m0 0" fill="#8793A5"/>
<path transform="translate(584,608)" d="m0 0" fill="#738BB0"/>
<path transform="translate(357,301)" d="m0 0 2 1z" fill="#9B9B9A"/>
<path transform="translate(433,224)" d="m0 0 2 1z" fill="#738BB0"/>
<path transform="translate(556,656)" d="m0 0" fill="#9B9B9A"/>
<path transform="translate(580,614)" d="m0 0" fill="#738BB0"/>
<path transform="translate(602,612)" d="m0 0" fill="#738BB0"/>
<path transform="translate(582,611)" d="m0 0" fill="#738BB0"/>
<path transform="translate(583,610)" d="m0 0" fill="#738BB0"/>
<path transform="translate(585,607)" d="m0 0" fill="#738BB0"/>
<path transform="translate(356,302)" d="m0 0" fill="#FEFEFE"/>
<path transform="translate(355,293)" d="m0 0" fill="#738BB0"/>
<path transform="translate(349,280)" d="m0 0" fill="#FEFEFE"/>
<path transform="translate(363,278)" d="m0 0" fill="#9B9B9A"/>
<path transform="translate(367,266)" d="m0 0" fill="#9B9B9A"/>
<path transform="translate(380,246)" d="m0 0" fill="#738BB0"/>
<path transform="translate(411,239)" d="m0 0" fill="#738BB0"/>
<path transform="translate(435,237)" d="m0 0" fill="#738BB0"/>
</svg>
